# Blender 3.3.1
# www.blender.org
mtllib misc012.mtl
o misc012
v 0.190872 0.009036 -0.028385
v 0.190872 0.021371 -0.027659
v 0.196136 0.009036 -0.025346
v 0.195508 0.021371 -0.024983
v 0.196136 0.009036 -0.019268
v 0.195508 0.021371 -0.019630
v 0.190872 0.009036 -0.016228
v 0.190872 0.021371 -0.016954
v 0.185608 0.009036 -0.019268
v 0.186237 0.021371 -0.019630
v 0.185608 0.009036 -0.025346
v 0.186237 0.021371 -0.024983
v 0.190872 0.020282 -0.029224
v 0.196863 0.020282 -0.025765
v 0.196863 0.020282 -0.018848
v 0.184882 0.020282 -0.018848
v 0.184882 0.020282 -0.025765
v 0.197146 0.009639 -0.025929
v 0.197146 0.009639 -0.018685
v 0.190872 0.009639 -0.015063
v 0.184599 0.009639 -0.025929
v 0.190872 0.009639 -0.029551
v 0.190872 0.014149 -0.030610
v 0.198063 0.014149 -0.026458
v 0.198063 0.014149 -0.018155
v 0.190872 0.014149 -0.014004
v 0.183682 0.014149 -0.026458
v 0.190872 0.015199 -0.030373
v 0.197858 0.015199 -0.026340
v 0.197858 0.015199 -0.018274
v 0.183887 0.015199 -0.018274
v 0.183887 0.015199 -0.026340
v 0.190872 0.008415 -0.029100
v 0.196755 0.008415 -0.025703
v 0.196755 0.021511 -0.025703
v 0.190872 0.021511 -0.029100
v 0.190872 0.020362 -0.029604
v 0.197490 0.009624 -0.026128
v 0.196755 0.008415 -0.018910
v 0.196755 0.021511 -0.018910
v 0.197490 0.009624 -0.018486
v 0.190872 0.008415 -0.015514
v 0.190872 0.021511 -0.015514
v 0.190872 0.009624 -0.014665
v 0.184989 0.008415 -0.018910
v 0.184989 0.021511 -0.018910
v 0.184254 0.009624 -0.018486
v 0.184989 0.008415 -0.025703
v 0.184989 0.021511 -0.025703
v 0.184254 0.009624 -0.026128
v 0.197192 0.020362 -0.025955
v 0.197192 0.020362 -0.018658
v 0.190872 0.020362 -0.015010
v 0.184553 0.020362 -0.018658
v 0.184553 0.020362 -0.025955
v 0.190872 0.009624 -0.029949
v 0.198246 0.015217 -0.026524
v 0.198462 0.014110 -0.026649
v 0.198246 0.015217 -0.018015
v 0.198462 0.014110 -0.017890
v 0.190877 0.015217 -0.013761
v 0.190877 0.014110 -0.013510
v 0.183508 0.015217 -0.018015
v 0.183291 0.014110 -0.017890
v 0.183508 0.015217 -0.026524
v 0.183291 0.014110 -0.026649
v 0.190877 0.014110 -0.031028
v 0.190877 0.015217 -0.030778
v 0.195508 0.020981 -0.024983
v 0.190872 0.020981 -0.027659
v 0.195508 0.020981 -0.019630
v 0.190872 0.020981 -0.016954
v 0.186237 0.020981 -0.019630
v 0.186237 0.020981 -0.024983
v 0.190872 0.017740 -0.029798
v 0.197360 0.017740 -0.018561
v 0.184384 0.017740 -0.018561
v 0.184384 0.017740 -0.026053
v 0.197558 0.015921 -0.026166
v 0.196465 0.017740 -0.026569
v 0.197163 0.019560 -0.025939
v 0.197360 0.017740 -0.025019
v 0.190219 0.020282 -0.015766
v 0.191525 0.020282 -0.015766
v 0.190872 0.020362 -0.015010
v 0.191525 0.015199 -0.014618
v 0.190219 0.015199 -0.014618
v 0.190877 0.015217 -0.013761
v 0.192229 0.017740 -0.015598
v 0.188232 0.017740 -0.016340
v 0.185141 0.009639 -0.018371
v 0.184599 0.009639 -0.019311
v 0.184255 0.009624 -0.018486
v 0.183682 0.014149 -0.018782
v 0.184224 0.014149 -0.017842
v 0.183292 0.014110 -0.017890
vn -0.3543 -0.7055 -0.6137
vn -0.0266 0.9986 0.0461
vn -0.1114 0.9938 -0.0000
vn -0.7088 -0.7054 -0.0000
vn 0.5000 -0.0000 -0.8660
vn 0.0557 0.9938 0.0964
vn 0.3543 -0.7056 0.6137
vn -0.0000 -1.0000 -0.0000
vn -0.4907 0.1920 -0.8499
vn -0.4907 0.1921 -0.8499
vn -0.9814 0.1921 -0.0000
vn 0.1180 -0.9718 0.2044
vn 0.1473 -0.9566 0.2514
vn 0.1180 -0.9718 0.2040
vn -0.4907 0.1920 0.8499
vn -0.4907 0.1921 0.8499
vn 0.8015 0.3787 -0.4628
vn 0.8599 0.1183 -0.4966
vn 0.9871 0.1596 -0.0126
vn 0.4617 0.3837 -0.7997
vn 0.1180 -0.9718 -0.2044
vn 0.2360 -0.9718 -0.0000
vn -0.0557 0.9938 0.0964
vn -0.0215 0.9991 -0.0372
vn 0.1114 0.9938 -0.0000
vn 0.4900 -0.1993 -0.8486
vn 0.9799 -0.1993 -0.0000
vn 0.4900 -0.1993 0.8486
vn -0.0429 0.9991 -0.0000
vn -0.0636 0.9980 -0.0009
vn -0.4900 -0.1993 0.8487
vn -0.4900 -0.1993 -0.8487
vn -0.3543 -0.7055 0.6137
vn -0.0339 0.9977 0.0582
vn -0.0215 0.9991 0.0372
vn 0.7086 -0.7056 -0.0000
vn 0.0535 -0.9943 0.0927
vn 0.4907 0.1920 0.8499
vn 0.0454 -0.9959 -0.0787
vn 0.0023 -1.0000 0.0024
vn 0.0013 -1.0000 0.0013
vn 0.0025 -1.0000 0.0026
vn 0.0455 -0.9959 -0.0788
vn 0.4674 0.3554 -0.8095
vn 0.9347 0.3555 -0.0000
vn 0.4674 0.3554 0.8095
vn -0.4674 0.3553 0.8095
vn -0.9348 0.3553 -0.0000
vn -0.4674 0.3553 -0.8095
vn 0.4273 -0.5194 -0.7400
vn 0.8545 -0.5195 -0.0000
vn 0.4273 -0.5194 0.7400
vn -0.4273 -0.5194 0.7400
vn -0.8546 -0.5194 -0.0000
vn -0.4273 -0.5194 -0.7401
vn 0.4907 0.1920 -0.8499
vn 0.9814 0.1920 -0.0000
vn -0.9814 0.1920 -0.0000
vn -0.0485 0.9988 -0.0000
vn -0.0528 -0.9944 0.0915
vn -0.0557 0.9938 -0.0964
vn -0.0966 -0.9953 -0.0000
vn 0.0215 0.9991 -0.0372
vn -0.0000 1.0000 -0.0000
vn -0.0225 0.9990 -0.0390
vn -0.0449 -0.9960 -0.0778
vn 0.3543 -0.7056 -0.6137
vn 0.0429 0.9991 -0.0000
vn 0.0497 0.9988 -0.0000
vn -0.1180 -0.9718 -0.2044
vn 0.0990 -0.9951 -0.0000
vn 0.0989 -0.9951 -0.0000
vn 0.0557 0.9938 -0.0964
vn 0.0215 0.9991 0.0372
vn 0.0270 0.9985 0.0467
vn -0.2359 -0.9718 -0.0000
vn -1.0000 -0.0000 -0.0000
vn 1.0000 -0.0000 -0.0000
vn -0.5000 -0.0000 0.8660
vn -0.5000 -0.0000 -0.8660
vn 0.5000 -0.0000 0.8660
vn 0.9235 0.3836 -0.0000
vn 0.0228 0.9990 -0.0394
vn 0.8552 -0.1569 -0.4939
vn 0.5045 0.1597 -0.8485
vn -0.0000 -0.9945 0.1049
vn -0.0000 0.9998 -0.0220
vn -0.1243 0.4410 0.8888
vn -0.1383 -0.0438 0.9894
vn -0.1448 -0.9571 0.2509
vn -0.1180 -0.9718 0.2044
vn -0.0180 0.9998 0.0104
vn 0.0428 -0.9988 -0.0247
vn -0.8431 -0.2286 0.4868
vn -0.9799 -0.1993 -0.0000
vn 0.9869 0.1609 0.0133
vn 0.4819 0.1609 -0.8613
vt 0.576397 0.834613
vt 0.485314 0.119276
vt 0.364917 0.126719
vt 0.597814 0.797518
vt 0.481034 0.066728
vt 0.360217 0.082685
vt 0.482742 0.322769
vt 0.477865 0.018092
vt 0.640648 0.797518
vt 0.348736 0.043935
vt 0.355565 0.309543
vt 0.662064 0.834613
vt 0.483723 0.276242
vt 0.360452 0.266419
vt 0.640648 0.871708
vt 0.487842 0.224159
vt 0.364303 0.219292
vt 0.597814 0.871708
vt 0.488139 0.172156
vt 0.365028 0.172156
vt 0.385010 0.125200
vt 0.379879 0.078141
vt 0.375727 0.318367
vt 0.367391 0.031335
vt 0.384187 0.221820
vt 0.385035 0.172156
vt 0.462495 0.066572
vt 0.457401 0.013314
vt 0.463143 0.327200
vt 0.465297 0.275531
vt 0.469493 0.172156
vt 0.466817 0.119534
vt 0.434365 0.121064
vt 0.429803 0.068576
vt 0.420074 0.013638
vt 0.428347 0.330935
vt 0.433235 0.274643
vt 0.436138 0.172156
vt 0.421564 0.121853
vt 0.416787 0.070383
vt 0.413386 0.327667
vt 0.405291 0.017172
vt 0.421063 0.224132
vt 0.422814 0.172156
vt 0.479165 0.119228
vt 0.474884 0.066492
vt 0.369177 0.080682
vt 0.373860 0.126328
vt 0.382703 0.125377
vt 0.464861 0.066548
vt 0.471282 0.015114
vt 0.476202 0.325458
vt 0.356208 0.035601
vt 0.363840 0.316526
vt 0.459970 0.011719
vt 0.465655 0.328640
vt 0.477468 0.275920
vt 0.368967 0.268332
vt 0.467612 0.275592
vt 0.481680 0.223813
vt 0.373070 0.220721
vt 0.471542 0.223805
vt 0.482005 0.172156
vt 0.373788 0.172156
vt 0.471896 0.172156
vt 0.377707 0.078660
vt 0.364596 0.030856
vt 0.373047 0.319529
vt 0.377727 0.269639
vt 0.381867 0.221606
vt 0.382697 0.172156
vt 0.469208 0.119527
vt 0.419306 0.069710
vt 0.427216 0.068631
vt 0.407944 0.014796
vt 0.416363 0.329683
vt 0.416563 0.012247
vt 0.424935 0.331851
vt 0.422247 0.274229
vt 0.430282 0.274601
vt 0.423789 0.224508
vt 0.431929 0.224582
vt 0.425390 0.172156
vt 0.433565 0.172156
vt 0.431949 0.121153
vt 0.423949 0.121656
vt 0.676987 0.897768
vt 0.357474 0.083339
vt 0.658127 0.865102
vt 0.362109 0.126967
vt 0.714706 0.897768
vt 0.346068 0.044835
vt 0.352766 0.309238
vt 0.733566 0.865102
vt 0.357649 0.266054
vt 0.714706 0.832436
vt 0.361498 0.219000
vt 0.676987 0.832436
vt 0.362217 0.172156
vt 0.403427 0.123316
vt 0.394655 0.323113
vt 0.386145 0.023942
vt 0.402784 0.223058
vt 0.403952 0.172156
vt 0.411241 0.071310
vt 0.398769 0.080102
vt 0.385288 0.076748
vt 0.396673 0.067481
vt 0.380687 0.264531
vt 0.379687 0.275515
vt 0.377728 0.269641
vt 0.418661 0.279131
vt 0.419352 0.269286
vt 0.422247 0.274231
vt 0.398453 0.281829
vt 0.400393 0.253033
vt 0.468620 0.228470
vt 0.469039 0.219095
vt 0.471541 0.223803
vt 0.435052 0.220416
vt 0.434750 0.228374
vt 0.431929 0.224584
s 1
usemtl Material.003
f 7/13/1 5/7/1 39/52/1 42/57/1
f 28/39/2 29/40/2 57/73/2 68/86/2
f 4/6/3 6/10/3 40/53/3 35/47/3
f 5/8/4 3/5/4 34/46/4 39/51/4
f 10/17/5 8/14/5 72/95/5 73/97/5
f 12/20/6 2/3/6 36/48/6 49/64/6
f 1/2/7 11/19/7 48/63/7 33/45/7
f 1/1/8 3/4/8 11/18/8
f 3/4/8 5/9/8 11/18/8
f 5/9/8 7/12/8 11/18/8
f 7/12/8 9/15/8 11/18/8
f 78/104/9 17/26/10 13/21/10 75/100/9
f 77/103/11 16/25/11 17/26/11 78/104/11
f 52/68/12 53/69/12 15/23/12
f 53/69/13 85/111/13 15/23/13
f 85/111/14 84/110/12 15/23/12
f 90/116/15 83/109/16 16/25/16 77/103/15
f 79/105/17 80/106/18 82/108/18
f 82/108/19 76/102/19 30/42/19 79/105/19
f 13/21/20 14/22/20 81/107/20
f 14/22/21 13/21/21 37/49/21 51/66/21
f 15/24/22 14/22/22 51/66/22 52/67/22
f 2/3/23 4/6/23 35/47/23 36/48/23
f 21/31/24 22/32/24 56/72/24 50/65/24
f 10/17/25 12/20/25 49/64/25 46/61/25
f 87/113/15 90/116/15 77/103/15 31/43/15
f 22/32/26 23/33/26 24/34/26 18/27/26
f 18/27/27 24/34/27 25/35/27 19/28/27
f 19/29/28 25/36/28 26/37/28 20/30/28
f 50/65/29 47/62/29 21/31/29
f 47/62/30 93/119/30 21/31/30
f 93/119/29 92/118/29 21/31/29
f 20/30/31 26/37/31 95/121/31 91/117/31
f 21/31/32 27/38/32 23/33/32 22/32/32
f 3/5/33 1/2/33 33/45/33 34/46/33
f 47/62/34 44/59/34 93/119/34
f 93/119/35 44/59/35 91/117/35
f 20/30/35 91/117/35 44/59/35
f 11/19/36 9/16/36 45/60/36 48/63/36
f 23/33/37 27/38/37 66/84/37 67/85/37
f 76/101/38 15/23/38 84/110/38 89/115/38
f 62/80/39 64/82/39 26/37/39
f 64/82/40 96/122/41 26/37/42
f 96/122/43 95/121/43 26/37/43
f 37/49/44 36/48/44 35/47/44 51/66/44
f 51/66/45 35/47/45 40/53/45 52/67/45
f 52/68/46 40/54/46 43/58/46 53/69/46
f 53/69/47 43/58/47 46/61/47 54/70/47
f 54/70/48 46/61/48 49/64/48 55/71/48
f 55/71/49 49/64/49 36/48/49 37/49/49
f 33/45/50 56/72/50 38/50/50 34/46/50
f 34/46/51 38/50/51 41/55/51 39/51/51
f 39/52/52 41/56/52 44/59/52 42/57/52
f 42/57/53 44/59/53 47/62/53 45/60/53
f 45/60/54 47/62/54 50/65/54 48/63/54
f 48/63/55 50/65/55 56/72/55 33/45/55
f 67/85/56 68/86/56 57/73/56 58/74/56
f 58/74/57 57/73/57 59/75/57 60/77/57
f 60/78/38 59/76/38 61/79/38 62/80/38
f 62/80/15 61/79/15 63/81/15 64/82/15
f 64/82/58 63/81/58 65/83/58 66/84/58
f 66/84/9 65/83/9 68/86/9 67/85/9
f 29/40/59 30/42/59 59/75/59 57/73/59
f 24/34/60 23/33/60 67/85/60 58/74/60
f 6/11/61 8/14/61 43/58/61 40/54/61
f 25/35/62 24/34/62 58/74/62 60/77/62
f 22/32/63 18/27/63 38/50/63 56/72/63
f 61/79/64 59/76/64 88/114/64
f 88/114/65 59/76/65 86/112/65
f 30/41/65 86/112/65 59/76/65
f 26/37/66 25/36/66 60/78/66 62/80/66
f 9/16/67 7/13/67 42/57/67 45/60/67
f 18/27/68 19/28/68 41/55/68 38/50/68
f 31/43/69 32/44/69 65/83/69 63/81/69
f 13/21/70 17/26/70 55/71/70 37/49/70
f 64/82/40 66/84/8 96/122/41
f 96/122/71 66/84/72 94/120/71
f 27/38/72 94/120/71 66/84/72
f 8/14/73 10/17/73 46/61/73 43/58/73
f 19/29/74 20/30/74 44/59/74 41/56/74
f 32/44/75 28/39/75 68/86/75 65/83/75
f 17/26/76 16/25/76 54/70/76 55/71/76
f 69/87/64 70/89/64 71/91/64
f 70/89/64 74/98/64 71/91/64
f 74/98/64 73/96/64 71/91/64
f 73/96/64 72/94/64 71/91/64
f 6/10/77 4/6/77 69/88/77 71/92/77
f 12/20/78 10/17/78 73/97/78 74/99/78
f 4/6/79 2/3/79 70/90/79 69/88/79
f 8/14/80 6/11/80 71/93/80 72/95/80
f 2/3/81 12/20/81 74/99/81 70/90/81
f 81/107/82 14/22/82 15/24/82
f 29/40/20 28/39/20 79/105/20
f 61/79/64 88/114/64 63/81/64
f 88/114/83 87/113/83 63/81/83
f 87/113/83 31/43/83 63/81/83
f 30/41/38 76/101/38 89/115/38 86/112/38
f 31/43/11 77/103/11 78/104/11 32/44/11
f 32/44/9 78/104/9 75/100/9 28/39/9
f 80/106/18 81/107/84 82/108/18
f 29/40/82 79/105/82 30/42/82
f 28/39/85 75/100/85 80/106/85 79/105/85
f 83/109/86 84/110/86 85/111/86
f 86/112/87 87/113/87 88/114/87
f 90/116/88 87/113/88 86/112/88 89/115/88
f 83/109/89 90/116/89 89/115/89 84/110/89
f 53/69/90 54/70/90 85/111/90
f 85/111/91 54/70/91 83/109/91
f 16/25/91 83/109/91 54/70/91
f 91/117/92 92/118/92 93/119/92
f 94/120/93 95/121/93 96/122/93
f 94/120/94 92/118/94 91/117/94 95/121/94
f 92/118/95 94/120/95 27/38/95 21/31/95
f 82/108/96 81/107/96 15/24/96 76/102/96
f 13/21/97 81/107/97 80/106/97 75/100/97
