# Blender 3.3.1
# www.blender.org
mtllib misc014.mtl
o misc014
v 0.192536 0.013299 -0.031308
v 0.192536 0.016286 -0.031308
v 0.192536 0.013299 -0.034295
v 0.192536 0.016286 -0.034295
v 0.195523 0.013299 -0.031308
v 0.195523 0.016286 -0.031308
v 0.195523 0.013299 -0.034295
v 0.195523 0.016286 -0.034295
v 0.192209 0.012971 -0.032802
v 0.192209 0.014792 -0.030981
v 0.192209 0.016613 -0.032802
v 0.192209 0.014792 -0.034623
v 0.194030 0.012971 -0.034623
v 0.194030 0.016613 -0.034623
v 0.195850 0.014792 -0.034623
v 0.195850 0.012971 -0.032802
v 0.195850 0.016613 -0.032802
v 0.195850 0.014792 -0.030981
v 0.194030 0.012971 -0.030981
v 0.194030 0.016613 -0.030981
v 0.191522 0.014792 -0.032802
v 0.194030 0.014792 -0.035309
v 0.196537 0.014792 -0.032802
v 0.194030 0.014792 -0.030294
v 0.194030 0.012285 -0.032802
v 0.192536 0.016286 -0.031308
v 0.192209 0.016613 -0.032802
v 0.192536 0.016286 -0.034295
v 0.194030 0.016613 -0.034623
v 0.195523 0.016286 -0.034295
v 0.195850 0.016613 -0.032802
v 0.195523 0.016286 -0.031308
v 0.194030 0.016613 -0.030981
v 0.194030 0.017300 -0.032802
v 0.193893 0.017646 -0.032571
v 0.193930 0.018839 -0.033172
v 0.194140 0.017048 -0.033740
v 0.194177 0.018241 -0.034342
v 0.193792 0.017640 -0.032589
v 0.193830 0.018833 -0.033190
v 0.194040 0.017042 -0.033758
v 0.194077 0.018235 -0.034360
v 0.193999 0.016807 -0.032883
v 0.194070 0.019080 -0.034029
v 0.193899 0.016801 -0.032901
v 0.193970 0.019074 -0.034047
v 0.194012 0.018858 -0.032289
v 0.193924 0.017736 -0.033010
v 0.193985 0.018138 -0.031164
v 0.193896 0.017016 -0.031885
v 0.193910 0.018865 -0.032287
v 0.193822 0.017743 -0.033008
v 0.193884 0.018145 -0.031162
v 0.193795 0.017023 -0.031883
v 0.194039 0.019006 -0.031401
v 0.193870 0.016868 -0.032773
v 0.193937 0.019013 -0.031399
v 0.193768 0.016875 -0.032771
vn -0.9015 -0.3061 0.3060
vn -0.9015 0.3061 0.3060
vn -0.9015 0.3061 -0.3061
vn -0.9015 -0.3061 -0.3061
vn -0.3061 -0.3061 -0.9015
vn -0.3061 0.3061 -0.9015
vn 0.3061 0.3061 -0.9015
vn 0.3061 -0.3061 -0.9015
vn 0.9015 -0.3061 -0.3061
vn 0.9015 0.3061 -0.3061
vn 0.9015 0.3061 0.3060
vn 0.9015 -0.3061 0.3060
vn 0.3061 -0.3061 0.9015
vn 0.3061 0.3060 0.9015
vn -0.3061 0.3060 0.9015
vn -0.3061 -0.3061 0.9015
vn -0.3061 -0.9015 -0.3061
vn 0.3061 -0.9015 -0.3061
vn 0.3061 -0.9015 0.3060
vn -0.3061 -0.9015 0.3060
vn -0.0000 -0.0000 1.0000
vn 0.3061 0.9015 -0.3061
vn -0.3061 0.9015 -0.3061
vn -0.3061 0.9015 0.3060
vn 0.3061 0.9015 0.3060
vn 0.9823 0.0591 0.1776
vn 0.9823 0.0591 0.1777
vn 0.1854 -0.4470 -0.8751
vn -0.9823 -0.0590 -0.1776
vn -0.9823 -0.0591 -0.1777
vn -0.1854 0.4470 0.8751
vn -0.1451 -0.3617 0.9209
vn -0.1038 0.9617 0.2536
vn 0.1444 0.3617 -0.9210
vn 0.1039 -0.9617 -0.2536
vn -0.9824 -0.0590 -0.1774
vn 0.9824 0.0590 0.1775
vn 0.9976 -0.0669 -0.0187
vn -0.0200 -0.5391 0.8420
vn -0.9976 0.0668 0.0189
vn -0.9976 0.0666 0.0191
vn 0.0208 0.5390 -0.8420
vn 0.0629 0.9842 -0.1653
vn -0.0347 -0.2607 -0.9648
vn -0.0630 -0.9842 0.1653
vn 0.0364 0.2606 0.9648
vn -0.9976 0.0669 0.0187
vt 0.337487 0.100589
vt 0.016822 0.099362
vt 0.089984 0.022138
vt 0.337202 0.172017
vt 0.016453 0.170125
vt 0.258863 0.096874
vt 0.159785 0.011719
vt 0.258557 0.175108
vt 0.095266 0.096302
vt 0.094808 0.174033
vt 0.176987 0.092856
vt 0.176599 0.178564
vt 0.300356 0.091722
vt 0.123960 0.012290
vt 0.342500 0.136324
vt 0.011719 0.134719
vt 0.300005 0.180585
vt 0.256804 0.135985
vt 0.218679 0.090136
vt 0.175001 0.047811
vt 0.218324 0.181553
vt 0.176436 0.135705
vt 0.136047 0.096696
vt 0.135598 0.174768
vt 0.097557 0.135197
vt 0.053839 0.090649
vt 0.086573 0.058508
vt 0.053360 0.179222
vt 0.296857 0.136140
vt 0.215905 0.135830
vt 0.137781 0.135705
vt 0.057448 0.134947
vt 0.132070 0.057472
vt 0.337202 0.172017
vt 0.088225 0.248286
vt 0.016453 0.170126
vt 0.122306 0.258847
vt 0.300004 0.180586
vt 0.158438 0.259741
vt 0.258558 0.175109
vt 0.174001 0.223633
vt 0.218323 0.181554
vt 0.176599 0.178565
vt 0.135599 0.174769
vt 0.094809 0.174034
vt 0.085490 0.211701
vt 0.053359 0.179222
vt 0.131004 0.213872
vt 0.268310 0.864796
vt 0.269101 0.866579
vt 0.268310 0.899893
vt 0.269101 0.898109
vt 0.300631 0.866579
vt 0.232761 0.866579
vt 0.233552 0.864796
vt 0.300631 0.898109
vt 0.232761 0.898109
vt 0.233552 0.899893
vt 0.266696 0.866579
vt 0.266696 0.898109
vt 0.235166 0.866579
vt 0.235166 0.898109
vt 0.252545 0.850526
vt 0.249317 0.850526
vt 0.284866 0.852309
vt 0.252545 0.914163
vt 0.249317 0.914163
vt 0.284866 0.912379
vt 0.250931 0.852309
vt 0.250931 0.912379
vt 0.820473 0.905491
vt 0.819682 0.903708
vt 0.820473 0.870394
vt 0.819682 0.872178
vt 0.788152 0.903708
vt 0.856022 0.903708
vt 0.855231 0.905491
vt 0.788152 0.872178
vt 0.856022 0.872178
vt 0.855231 0.870394
vt 0.822087 0.903708
vt 0.822087 0.872178
vt 0.853617 0.903708
vt 0.853617 0.872178
vt 0.836238 0.919761
vt 0.839466 0.919761
vt 0.803917 0.917978
vt 0.836238 0.856125
vt 0.839466 0.856124
vt 0.803917 0.857908
vt 0.837852 0.917978
vt 0.837852 0.857908
s 1
usemtl Material.003
f 1/1/1 10/15/1 21/29/1 9/13/1
f 10/15/2 2/4/2 11/17/2 21/29/2
f 21/29/3 11/17/3 4/8/3 12/18/3
f 9/13/4 21/29/4 12/18/4 3/6/4
f 3/6/5 12/18/5 22/30/5 13/19/5
f 12/18/6 4/8/6 14/21/6 22/30/6
f 22/30/7 14/21/7 8/12/7 15/22/7
f 13/19/8 22/30/8 15/22/8 7/11/8
f 7/11/9 15/22/9 23/31/9 16/23/9
f 15/22/10 8/12/10 17/24/10 23/31/10
f 23/31/11 17/24/11 6/10/11 18/25/11
f 16/23/12 23/31/12 18/25/12 5/9/12
f 5/9/13 18/25/13 24/32/13 19/26/13
f 18/25/14 6/10/14 20/28/14 24/32/14
f 24/32/15 20/28/15 2/5/15 10/16/15
f 19/26/16 24/32/16 10/16/16 1/2/16
f 3/7/17 13/20/17 25/33/17 9/14/17
f 13/20/18 7/11/18 16/23/18 25/33/18
f 25/33/19 16/23/19 5/9/19 19/27/19
f 9/14/20 25/33/20 19/27/20 1/3/20
f 17/24/21 8/12/21 30/43/21 31/44/21
f 8/12/21 14/21/21 29/42/21 30/43/21
f 20/28/21 6/10/21 32/45/21 33/47/21
f 11/17/21 2/4/21 26/34/21 27/38/21
f 30/43/22 29/41/22 34/48/22 31/44/22
f 29/41/23 28/39/23 27/37/23 34/48/23
f 34/48/24 27/37/24 26/35/24 33/46/24
f 31/44/25 34/48/25 33/46/25 32/45/25
f 4/8/21 11/17/21 27/38/21 28/40/21
f 2/5/21 20/28/21 33/47/21 26/36/21
f 14/21/21 4/8/21 28/40/21 29/42/21
f 6/10/21 17/24/21 31/44/21 32/45/21
f 43/65/26 37/53/27 38/56/27 44/68/26
f 37/54/28 41/61/28 42/62/28 38/57/28
f 45/69/29 39/59/30 40/60/30 46/70/29
f 39/59/31 35/50/31 36/52/31 40/60/31
f 43/63/32 35/49/32 39/59/32 45/69/32
f 46/70/33 40/60/33 36/51/33 44/66/33
f 42/62/34 46/70/34 44/67/34 38/58/34
f 37/55/35 43/64/35 45/69/35 41/61/35
f 41/61/36 45/69/29 46/70/29 42/62/36
f 35/50/37 43/65/26 44/68/26 36/52/37
f 55/87/38 49/75/38 50/78/38 56/90/38
f 49/76/39 53/83/39 54/84/39 50/79/39
f 57/91/40 51/81/41 52/82/41 58/92/40
f 51/81/42 47/72/42 48/74/42 52/82/42
f 55/85/43 47/71/43 51/81/43 57/91/43
f 58/92/44 52/82/44 48/73/44 56/88/44
f 54/84/45 58/92/45 56/89/45 50/80/45
f 49/77/46 55/86/46 57/91/46 53/83/46
f 53/83/47 57/91/40 58/92/40 54/84/47
f 47/72/38 55/87/38 56/90/38 48/74/38
