# Blender 3.3.1
# www.blender.org
mtllib misc09.mtl
o misc09
v 0.186846 0.008847 0.014106
v 0.186712 0.014805 0.012620
v 0.184425 0.008280 0.004626
v 0.186432 0.015177 0.004677
v 0.195273 0.008847 0.014106
v 0.195111 0.015416 0.012587
v 0.194359 0.008708 0.004168
v 0.195286 0.015328 0.004017
v 0.184155 0.008686 0.009877
v 0.185485 0.012325 0.013650
v 0.185403 0.014989 0.008964
v 0.185060 0.012163 0.002593
v 0.190325 0.008656 0.002578
v 0.190876 0.015592 0.003089
v 0.196569 0.011866 0.002467
v 0.197150 0.008752 0.009880
v 0.196858 0.015466 0.008587
v 0.196569 0.011866 0.014658
v 0.191054 0.008752 0.015976
v 0.190415 0.014991 0.013970
v 0.182936 0.012265 0.008504
v 0.190983 0.011963 0.000991
v 0.198868 0.011866 0.008563
v 0.190473 0.011866 0.016958
v 0.191102 0.009521 0.009988
v 0.189611 0.016192 0.009832
v 0.189534 0.016390 0.007499
v 0.192158 0.016542 0.009685
v 0.192241 0.016500 0.007201
v 0.189321 0.016287 0.008765
v 0.190874 0.016613 0.006953
v 0.192688 0.016566 0.008579
v 0.190721 0.016340 0.010042
v 0.189677 0.016820 0.009843
v 0.189600 0.017018 0.007510
v 0.192224 0.017170 0.009696
v 0.192307 0.017128 0.007213
v 0.189387 0.016915 0.008777
v 0.190940 0.017241 0.006964
v 0.192754 0.017194 0.008590
v 0.190787 0.016968 0.010053
v 0.188638 0.018368 0.009300
v 0.189325 0.018819 0.005765
v 0.192721 0.018861 0.008617
v 0.193294 0.018857 0.005689
v 0.188642 0.018687 0.007590
v 0.190917 0.018056 0.004543
v 0.192845 0.019195 0.006990
v 0.190468 0.018931 0.009776
v 0.190969 0.019134 0.007225
v 0.190859 0.016577 0.006507
v 0.192603 0.016433 0.006823
v 0.189150 0.016292 0.007202
v 0.188880 0.016162 0.008818
v 0.189249 0.016040 0.010178
v 0.193173 0.016517 0.008580
v 0.192497 0.016486 0.009991
v 0.190664 0.016229 0.010446
v 0.190943 0.017378 0.006521
v 0.192687 0.017234 0.006837
v 0.189234 0.017093 0.007216
v 0.188964 0.016963 0.008832
v 0.189333 0.016841 0.010192
v 0.193258 0.017318 0.008594
v 0.192581 0.017288 0.010005
v 0.190748 0.017030 0.010460
vn -0.8555 -0.1877 0.4826
vn -0.7501 0.5692 0.3368
vn -0.7589 0.6094 -0.2295
vn -0.9656 -0.1666 -0.1995
vn -0.2657 -0.3950 -0.8794
vn -0.2561 0.5495 -0.7953
vn 0.2214 0.4801 -0.8488
vn 0.2561 -0.5259 -0.8110
vn 0.7301 -0.6077 -0.3125
vn 0.8339 0.4576 -0.3086
vn 0.8100 0.4867 0.3271
vn 0.8572 -0.3776 0.3503
vn 0.3634 -0.2658 0.8929
vn 0.2312 0.6206 0.7493
vn -0.3664 0.5914 0.7183
vn -0.4891 -0.2117 0.8461
vn 0.1076 -0.9896 0.0951
vn -0.0840 -0.9922 0.0916
vn -0.0808 -0.9935 -0.0808
vn 0.0801 -0.9936 -0.0798
vn 0.0006 0.9402 0.3405
vn 0.1136 0.9615 -0.2500
vn -0.3013 0.9404 0.1576
vn 0.2490 0.9604 0.1250
vn 0.2506 0.9609 -0.1180
vn -0.3286 0.9441 -0.0242
vn -0.1638 0.9384 0.3041
vn -0.1904 0.9542 -0.2306
vn 0.2693 -0.9625 -0.0326
vn 0.0251 0.9550 0.2957
vn 0.1926 -0.9786 0.0720
vn -0.1009 0.9820 -0.1594
vn -0.0982 -0.9919 0.0811
vn -0.0969 -0.9919 0.0825
vn -0.0983 -0.9919 0.0810
vn -0.1772 0.9703 -0.1647
vn 0.1727 -0.9558 -0.2381
vn -0.2378 0.9668 -0.0931
vn -0.8852 -0.4647 0.0219
vn -0.4214 -0.7812 -0.4606
vn 0.3519 0.3106 0.8830
vn 0.9680 -0.2481 0.0378
vn -0.8387 -0.4681 -0.2785
vn 0.3222 -0.8296 -0.4561
vn -0.2542 0.1256 0.9590
vn 0.9718 0.0159 0.2351
vn -0.0047 0.9786 -0.2059
vn -0.1153 0.9322 -0.3430
vn -0.2374 0.9672 0.0904
vn 0.0473 0.9898 0.1344
vn 0.2467 -0.0430 0.9681
vn 0.9481 -0.0943 -0.3036
vn -0.9821 0.1060 -0.1560
vn 0.1785 -0.0014 -0.9839
vn -0.1865 0.0024 0.9825
vn 0.8979 -0.1020 0.4283
vn -0.9584 0.0961 0.2689
vn -0.3846 0.0566 -0.9214
vn -0.0391 0.9547 0.2950
vn 0.2528 -0.9552 -0.1540
vn 0.1239 0.9872 0.1005
vn -0.0996 -0.9918 0.0797
vn 0.1186 0.9913 0.0562
vn -0.0995 -0.9926 -0.0692
vn -0.2397 0.9703 0.0316
vn 0.0721 -0.9644 -0.2545
vt 0.434583 0.432917
vt 0.079664 0.780329
vt 0.410816 0.473871
vt 0.342991 0.428970
vt 0.011719 0.766267
vt 0.361701 0.480556
vt 0.491148 0.487426
vt 0.105933 0.726822
vt 0.447139 0.517341
vt 0.280149 0.503319
vt 0.039955 0.701666
vt 0.329956 0.527234
vt 0.391045 0.421785
vt 0.044385 0.784244
vt 0.416897 0.453025
vt 0.387404 0.473436
vt 0.344986 0.459242
vt 0.300590 0.467674
vt 0.017310 0.722368
vt 0.344068 0.503215
vt 0.304971 0.518134
vt 0.268053 0.553179
vt 0.505190 0.522793
vt 0.084956 0.701679
vt 0.450112 0.546474
vt 0.331299 0.558318
vt 0.473639 0.502746
vt 0.467953 0.455977
vt 0.104727 0.759473
vt 0.429871 0.489684
vt 0.381315 0.447578
vt 0.318635 0.486658
vt 0.295634 0.560300
vt 0.484424 0.546502
vt 0.451276 0.468067
vt 0.066809 0.740493
vt 0.400590 0.504890
vt 0.934619 0.515813
vt 0.378958 0.508277
vt 0.929100 0.494341
vt 0.415722 0.522247
vt 0.933699 0.536904
vt 0.362714 0.529014
vt 0.919575 0.473438
vt 0.390342 0.504563
vt 0.933560 0.503262
vt 0.934654 0.506802
vt 0.368796 0.517479
vt 0.924025 0.483780
vt 0.415886 0.531853
vt 0.363954 0.539917
vt 0.915597 0.462956
vt 0.934590 0.546535
vt 0.408780 0.511318
vt 0.934349 0.525403
vt 0.706400 0.307944
vt 0.923211 0.516480
vt 0.703117 0.291461
vt 0.918241 0.498583
vt 0.922384 0.537306
vt 0.711288 0.325835
vt 0.717083 0.279716
vt 0.908340 0.477946
vt 0.704028 0.300495
vt 0.921947 0.507994
vt 0.707566 0.282156
vt 0.913028 0.488407
vt 0.921265 0.546566
vt 0.725789 0.285058
vt 0.712511 0.334397
vt 0.903317 0.468198
vt 0.922782 0.525750
vt 0.708800 0.315603
vt 0.692957 0.305372
vt 0.519184 0.333197
vt 0.689705 0.279791
vt 0.518766 0.358865
vt 0.700867 0.336014
vt 0.546873 0.344508
vt 0.716608 0.262059
vt 0.546082 0.366045
vt 0.689705 0.293552
vt 0.516958 0.345247
vt 0.697818 0.267015
vt 0.527387 0.371280
vt 0.725287 0.266997
vt 0.700327 0.347738
vt 0.545194 0.356106
vt 0.695097 0.319115
vt 0.533085 0.333197
vt 0.532639 0.351582
vt 0.921186 0.484824
vt 0.916526 0.474442
vt 0.926488 0.495971
vt 0.931214 0.505933
vt 0.931585 0.515501
vt 0.911879 0.462858
vt 0.931294 0.548639
vt 0.930765 0.537521
vt 0.931565 0.524667
vt 0.915513 0.486733
vt 0.911281 0.476113
vt 0.921072 0.497299
vt 0.924980 0.507442
vt 0.926309 0.516144
vt 0.924813 0.548728
vt 0.905873 0.465209
vt 0.925297 0.538345
vt 0.925610 0.525562
s 1
usemtl Material.003
f 1/1/1 10/15/1 21/31/1 9/13/1
f 10/15/2 2/3/2 11/16/2 21/31/2
f 21/31/3 11/16/3 4/6/3 12/17/3
f 9/13/4 21/31/4 12/17/4 3/4/4
f 3/4/5 12/17/5 22/32/5 13/18/5
f 12/17/6 4/6/6 14/20/6 22/32/6
f 22/32/7 14/20/7 8/12/7 15/21/7
f 13/18/8 22/32/8 15/21/8 7/10/8
f 7/10/9 15/21/9 23/33/9 16/22/9
f 15/21/10 8/12/10 17/26/10 23/33/10
f 23/34/11 17/25/11 6/9/11 18/27/11
f 16/23/12 23/34/12 18/27/12 5/7/12
f 5/7/13 18/27/13 24/35/13 19/28/13
f 18/27/14 6/9/14 20/30/14 24/35/14
f 24/35/15 20/30/15 2/3/15 10/15/15
f 19/28/16 24/35/16 10/15/16 1/1/16
f 3/5/17 13/19/17 25/36/17 9/14/17
f 13/19/18 7/11/18 16/24/18 25/36/18
f 25/36/19 16/24/19 5/8/19 19/29/19
f 9/14/20 25/36/20 19/29/20 1/2/20
f 20/30/21 6/9/21 28/41/21 33/54/21
f 8/12/22 14/20/22 31/48/22 29/43/22
f 11/16/23 2/3/23 26/37/23 30/45/23
f 6/9/24 17/25/24 32/50/24 28/41/24
f 17/26/25 8/12/25 29/43/25 32/51/25
f 4/6/26 11/16/26 30/45/26 27/39/26
f 2/3/27 20/30/27 33/54/27 26/37/27
f 14/20/28 4/6/28 27/39/28 31/48/28
f 27/40/29 30/46/29 54/95/29 53/94/29
f 39/67/30 37/63/30 60/102/30 59/101/30
f 31/49/31 27/40/31 53/94/31 51/92/31
f 41/72/32 34/57/32 63/105/32 66/109/32
f 29/44/33 31/49/34 51/92/34 52/93/35
f 36/60/36 41/72/36 66/109/36 65/108/36
f 26/38/37 33/55/37 58/100/37 55/96/37
f 40/68/38 36/60/38 65/108/38 64/106/38
f 38/64/39 34/56/39 42/74/39 46/82/39
f 39/66/40 35/58/40 43/76/40 47/84/40
f 41/73/41 36/61/41 44/78/41 49/89/41
f 40/69/42 37/62/42 45/80/42 48/86/42
f 35/58/43 38/64/43 46/82/43 43/76/43
f 37/62/44 39/66/44 47/84/44 45/80/44
f 34/56/45 41/73/45 49/89/45 42/74/45
f 36/61/46 40/70/46 48/87/46 44/78/46
f 46/83/47 50/91/47 47/85/47 43/77/47
f 50/91/48 48/88/48 45/81/48 47/85/48
f 42/75/49 49/90/49 50/91/49 46/83/49
f 49/90/50 44/79/50 48/88/50 50/91/50
f 58/100/51 57/99/51 65/108/51 66/109/51
f 56/97/52 52/93/52 60/102/52 64/107/52
f 53/94/53 54/95/53 62/104/53 61/103/53
f 52/93/54 51/92/54 59/101/54 60/102/54
f 55/96/55 58/100/55 66/109/55 63/105/55
f 57/99/56 56/98/56 64/106/56 65/108/56
f 54/95/57 55/96/57 63/105/57 62/104/57
f 51/92/58 53/94/58 61/103/58 59/101/58
f 35/59/59 39/67/59 59/101/59 61/103/59
f 30/47/60 26/38/60 55/96/60 54/95/60
f 38/65/61 35/59/61 61/103/61 62/104/61
f 32/52/62 29/44/33 52/93/35 56/97/62
f 34/57/63 38/65/63 62/104/63 63/105/63
f 28/42/64 32/53/64 56/98/64 57/99/64
f 37/63/65 40/71/65 64/107/65 60/102/65
f 33/55/66 28/42/66 57/99/66 58/100/66
