# Blender 3.3.1
# www.blender.org
mtllib misc03.mtl
o misc03
v 0.187276 0.027342 0.110326
v 0.187276 0.027342 0.109276
v 0.182653 0.027340 0.110326
v 0.182653 0.027340 0.109276
v 0.186280 0.023662 0.110326
v 0.186280 0.023662 0.109276
v 0.183157 0.021400 0.110326
v 0.183157 0.021400 0.109276
v 0.182219 0.025053 0.110326
v 0.182219 0.025053 0.109276
v 0.188008 0.025254 0.110326
v 0.188008 0.025254 0.109276
v 0.185192 0.028348 0.110326
v 0.185192 0.028348 0.109276
v 0.184881 0.021113 0.110326
v 0.184881 0.021113 0.109276
v 0.185215 0.025027 0.109276
v 0.185215 0.025027 0.110326
v 0.185215 0.029134 0.110326
v 0.187789 0.027892 0.110326
v 0.185215 0.029134 0.109276
v 0.182086 0.027892 0.109276
v 0.181543 0.025027 0.110326
v 0.182086 0.027892 0.110326
v 0.181543 0.025027 0.109276
v 0.182641 0.020746 0.109276
v 0.185215 0.020318 0.110326
v 0.182641 0.020746 0.110326
v 0.185215 0.020318 0.109276
v 0.186784 0.023176 0.109276
v 0.188794 0.025027 0.110326
v 0.186784 0.023176 0.110326
v 0.188794 0.025027 0.109276
v 0.187789 0.027892 0.109276
v 0.183446 0.023219 0.110421
v 0.183446 0.023219 0.109135
v 0.183934 0.022374 0.110421
v 0.183934 0.022374 0.109135
v 0.184910 0.022374 0.110421
v 0.184910 0.022374 0.109135
v 0.185398 0.023219 0.110421
v 0.185398 0.023219 0.109135
v 0.184910 0.024065 0.110421
v 0.184910 0.024065 0.109135
v 0.183934 0.024065 0.110421
v 0.183934 0.024065 0.109135
vn -0.3690 0.9294 -0.0000
vn -0.9686 -0.2486 -0.0000
vn 0.8767 -0.4811 -0.0000
vn 0.9437 0.3307 -0.0000
vn -0.0000 -0.0000 1.0000
vn -0.0000 -0.0000 -1.0000
vn 0.6773 -0.7357 -0.0000
vn -0.9825 0.1865 -0.0000
vn -0.1639 -0.9865 -0.0000
vn 0.4346 0.9006 -0.0000
vn -0.8660 -0.5001 -0.0000
vn -0.0000 -1.0000 -0.0000
vn 0.8660 -0.5001 -0.0000
vn 0.8661 0.4999 -0.0000
vn -0.0000 1.0000 -0.0000
vn -0.8661 0.4999 -0.0000
vt 0.610703 0.919599
vt 0.372398 0.902750
vt 0.612070 0.887049
vt 0.399113 0.886894
vt 0.636903 0.913662
vt 0.364050 0.876671
vt 0.653749 0.892336
vt 0.376745 0.853029
vt 0.628302 0.884664
vt 0.394656 0.871733
vt 0.625194 0.925364
vt 0.361141 0.892764
vt 0.604231 0.904626
vt 0.388618 0.902867
vt 0.655261 0.904561
vt 0.364678 0.855379
vt 0.375741 0.881524
vt 0.627610 0.905765
vt 0.398234 0.911612
vt 0.390498 0.916189
vt 0.598687 0.904561
vt 0.367742 0.914249
vt 0.606679 0.923049
vt 0.391449 0.908187
vt 0.404230 0.887940
vt 0.405408 0.865748
vt 0.628686 0.879906
vt 0.411192 0.888947
vt 0.608351 0.882894
vt 0.398892 0.869331
vt 0.378175 0.847850
vt 0.352732 0.850528
vt 0.360388 0.842296
vt 0.660764 0.907145
vt 0.381470 0.841440
vt 0.658506 0.888896
vt 0.360340 0.850575
vt 0.358864 0.875607
vt 0.349783 0.897016
vt 0.626561 0.930959
vt 0.351322 0.875410
vt 0.640177 0.917351
vt 0.356190 0.894554
vt 0.370990 0.907640
vt 0.222385 0.668296
vt 0.216428 0.664857
vt 0.237402 0.664857
vt 0.231445 0.668296
vt 0.222385 0.675175
vt 0.210471 0.661417
vt 0.231445 0.675175
vt 0.243360 0.661417
vt 0.222385 0.682054
vt 0.210471 0.654539
vt 0.231445 0.682054
vt 0.243360 0.654539
vt 0.222385 0.688932
vt 0.216428 0.651099
vt 0.231445 0.688933
vt 0.237402 0.651099
vt 0.222385 0.695811
vt 0.222385 0.654539
vt 0.231445 0.695811
vt 0.231445 0.654539
vt 0.222385 0.661417
vt 0.231445 0.661418
s 1
usemtl Material.003
f 19/19/1 21/24/1 22/25/1 24/28/1
f 23/26/2 25/30/2 26/31/2 28/35/2
f 27/32/3 29/37/3 30/38/3 32/41/3
f 31/39/4 33/43/4 34/44/4 20/22/4
f 18/18/5 15/15/5 5/5/5 11/11/5
f 17/17/6 14/14/6 2/2/6 12/12/6
f 16/16/6 17/17/6 12/12/6 6/6/6
f 13/13/5 18/18/5 11/11/5 1/1/5
f 32/41/7 30/38/7 33/43/7 31/39/7
f 24/28/8 22/25/8 25/30/8 23/26/8
f 3/3/5 9/9/5 18/18/5 13/13/5
f 8/8/6 10/10/6 17/17/6 16/16/6
f 10/10/6 4/4/6 14/14/6 17/17/6
f 9/9/5 7/7/5 15/15/5 18/18/5
f 28/35/9 26/31/9 29/37/9 27/33/9
f 20/22/10 34/44/10 21/24/10 19/20/10
f 13/13/5 1/1/5 20/23/5 19/21/5
f 14/14/6 4/4/6 22/25/6 21/24/6
f 9/9/5 3/3/5 24/29/5 23/27/5
f 10/10/6 8/8/6 26/31/6 25/30/6
f 15/15/5 7/7/5 28/36/5 27/34/5
f 16/16/6 6/6/6 30/38/6 29/37/6
f 11/11/5 5/5/5 32/42/5 31/40/5
f 12/12/6 2/2/6 34/44/6 33/43/6
f 7/7/5 9/9/5 23/27/5 28/36/5
f 4/4/6 10/10/6 25/30/6 22/25/6
f 1/1/5 11/11/5 31/40/5 20/23/5
f 6/6/6 12/12/6 33/43/6 30/38/6
f 3/3/5 13/13/5 19/21/5 24/29/5
f 2/2/6 14/14/6 21/24/6 34/44/6
f 5/5/5 15/15/5 27/34/5 32/42/5
f 8/8/6 16/16/6 29/37/6 26/31/6
f 35/45/11 36/48/11 38/51/11 37/49/11
f 37/49/12 38/51/12 40/55/12 39/53/12
f 39/53/13 40/55/13 42/59/13 41/57/13
f 41/57/14 42/59/14 44/63/14 43/61/14
f 38/52/6 36/47/6 46/66/6 44/64/6 42/60/6 40/56/6
f 43/62/15 44/64/15 46/66/15 45/65/15
f 45/65/16 46/66/16 36/48/16 35/45/16
f 35/46/5 37/50/5 39/54/5 41/58/5 43/62/5 45/65/5
