# Blender 3.3.1
# www.blender.org
mtllib misc02.mtl
o misc02
v 0.184284 0.025024 0.115163
v 0.184499 0.022550 0.115921
v 0.183607 0.024998 0.115172
v 0.183201 0.022568 0.115915
v 0.184284 0.025066 0.115289
v 0.184499 0.022629 0.116159
v 0.183607 0.025039 0.115297
v 0.183201 0.022647 0.116153
v 0.183967 0.025387 0.115044
v 0.183852 0.021941 0.116124
v 0.183967 0.025429 0.115168
v 0.183852 0.022019 0.116361
v 0.186801 0.016327 0.114044
v 0.186801 0.026600 0.113381
v 0.183123 0.016327 0.114044
v 0.183123 0.026600 0.113381
v 0.186790 0.016430 0.114486
v 0.186801 0.026600 0.115114
v 0.183123 0.016327 0.114452
v 0.183123 0.026600 0.115114
v 0.186883 0.024716 0.113103
v 0.183041 0.024716 0.113103
v 0.183041 0.024716 0.115393
v 0.186883 0.024716 0.115393
v 0.184962 0.017995 0.114044
v 0.184962 0.028363 0.113381
v 0.184962 0.017995 0.114452
v 0.184962 0.028363 0.115114
v 0.184962 0.025146 0.115393
v 0.184962 0.025146 0.113103
v 0.183881 0.018966 0.114046
v 0.183881 0.018966 0.114449
v 0.186043 0.018966 0.114449
v 0.186043 0.018966 0.114046
v 0.184962 0.018966 0.114046
v 0.184962 0.018966 0.114449
v 0.182983 0.015339 0.114248
v 0.182983 0.027008 0.114248
v 0.186941 0.015339 0.114248
v 0.186941 0.027008 0.114248
v 0.187029 0.024964 0.114248
v 0.182894 0.024964 0.114248
v 0.184962 0.028877 0.114248
v 0.184962 0.017006 0.114248
v 0.183799 0.018848 0.114248
v 0.186125 0.018848 0.114248
v 0.186422 0.021613 0.113431
v 0.183502 0.021613 0.113431
v 0.183502 0.021613 0.115064
v 0.186422 0.021613 0.115064
v 0.184962 0.021717 0.113431
v 0.184962 0.021717 0.115064
v 0.183391 0.021655 0.114248
v 0.186533 0.021655 0.114248
v 0.187093 0.020433 0.114386
v 0.188108 0.023386 0.114386
v 0.185931 0.021144 0.114386
v 0.186435 0.025256 0.114386
v 0.187093 0.020433 0.114135
v 0.188108 0.023386 0.114135
v 0.185931 0.021144 0.114135
v 0.186435 0.025256 0.114135
v 0.184003 0.025104 0.113230
v 0.183328 0.022714 0.112472
v 0.184663 0.024962 0.113188
v 0.184608 0.022509 0.112413
v 0.184003 0.025067 0.113357
v 0.183328 0.022644 0.112712
v 0.184663 0.024925 0.113315
v 0.184608 0.022439 0.112652
v 0.184382 0.025411 0.113319
v 0.183850 0.021997 0.112263
v 0.184382 0.025374 0.113446
v 0.183850 0.021927 0.112503
vn 0.0061 -0.2969 -0.9549
vn -0.0062 -0.2967 -0.9550
vn 0.0062 -0.2969 -0.9549
vn -0.9875 0.1498 -0.0495
vn 0.0052 0.3325 0.9431
vn -0.0060 0.3327 0.9430
vn -0.0062 0.3327 0.9430
vn 0.9966 0.0787 -0.0260
vn 0.7045 -0.6737 0.2232
vn -0.7125 -0.6661 0.2207
vn 0.0054 0.3325 0.9431
vn -0.0064 -0.2967 -0.9550
vn -0.0637 0.1093 -0.9920
vn -0.9860 0.0540 0.1580
vn 0.0637 0.1093 0.9920
vn 0.9859 0.0539 -0.1582
vn -0.1930 -0.2173 0.9568
vn 0.6305 0.6628 -0.4038
vn 0.9826 -0.1522 -0.1067
vn -0.0156 -0.0989 0.9950
vn -0.9826 -0.1523 0.1067
vn 0.0156 -0.0989 -0.9950
vn -0.0156 -0.0989 -0.9950
vn 0.0156 -0.0989 0.9950
vn -0.6305 0.6629 -0.4037
vn 0.1844 -0.2111 0.9599
vn -0.0637 0.1093 0.9920
vn 0.0638 0.1093 -0.9920
vn -0.0009 0.0015 1.0000
vn -0.0037 0.0056 1.0000
vn 0.0009 0.0015 -1.0000
vn -0.0000 0.0015 -1.0000
vn -0.0009 0.0015 -1.0000
vn -0.9587 0.2454 -0.1434
vn -0.0065 0.0098 0.9999
vn 0.9589 0.2454 0.1426
vn 0.9543 0.2458 -0.1702
vn -0.9587 0.2454 0.1434
vn 0.1844 -0.2111 -0.9599
vn -0.6306 0.6629 0.4037
vn -0.9826 -0.1523 -0.1067
vn 0.9826 -0.1522 0.1067
vn 0.6306 0.6628 0.4038
vn -0.1845 -0.2111 -0.9599
vn 0.9859 0.0539 0.1582
vn -0.9860 0.0540 -0.1580
vn 0.9672 -0.1617 0.1961
vn -0.9672 -0.1617 -0.1961
vn 0.0091 -0.2216 0.9751
vn -0.0091 -0.2216 -0.9751
vn 0.0091 -0.2216 -0.9751
vn -0.9672 -0.1617 0.1961
vn -0.0091 -0.2216 0.9751
vn 0.9672 -0.1617 -0.1961
vn -0.0000 -0.0000 1.0000
vn -0.0000 -0.0000 -1.0000
vn 0.9457 -0.3249 -0.0000
vn -0.5217 -0.8531 -0.0000
vn 0.7454 0.6666 -0.0000
vn -0.0002 0.2979 -0.9546
vn -0.0003 0.2979 -0.9546
vn 0.0082 0.2967 -0.9549
vn 0.9998 -0.0205 -0.0060
vn -0.0009 -0.2611 0.9653
vn 0.0085 -0.2626 0.9649
vn 0.0083 -0.2625 0.9649
vn -0.9657 0.2494 0.0724
vn -0.8202 -0.5494 -0.1597
vn 0.5757 -0.7851 -0.2287
vn -0.0011 -0.2610 0.9653
vn 0.0084 0.2967 -0.9549
vt 0.927459 0.355814
vt 0.909818 0.350951
vt 0.928860 0.351024
vt 0.912844 0.342516
vt 0.927192 0.356734
vt 0.908664 0.352289
vt 0.929320 0.350160
vt 0.926196 0.361512
vt 0.912920 0.340831
vt 0.907355 0.361523
vt 0.930964 0.354579
vt 0.907784 0.345529
vt 0.929581 0.359419
vt 0.906280 0.344891
vt 0.903317 0.356154
vt 0.200869 0.695765
vt 0.123748 0.692098
vt 0.190731 0.719346
vt 0.122134 0.716979
vt 0.239821 0.201332
vt 0.123754 0.682629
vt 0.184381 0.649343
vt 0.122978 0.657975
vt 0.137539 0.693704
vt 0.135348 0.718068
vt 0.136220 0.657198
vt 0.137766 0.681042
vt 0.184577 0.702503
vt 0.111885 0.703683
vt 0.188308 0.666612
vt 0.228734 0.188994
vt 0.112206 0.670862
vt 0.134255 0.669750
vt 0.133669 0.705284
vt 0.176246 0.709278
vt 0.177675 0.665477
vt 0.221992 0.197675
vt 0.180727 0.685879
vt 0.180281 0.690452
vt 0.178278 0.700430
vt 0.221616 0.189760
vt 0.180815 0.673838
vt 0.185551 0.642301
vt 0.195551 0.724536
vt 0.116658 0.654382
vt 0.115703 0.720371
vt 0.247310 0.204496
vt 0.209046 0.696769
vt 0.118051 0.687388
vt 0.134702 0.687352
vt 0.131965 0.649305
vt 0.131312 0.726028
vt 0.104594 0.703647
vt 0.104925 0.670631
vt 0.236493 0.188553
vt 0.192702 0.659057
vt 0.191704 0.705952
vt 0.176571 0.710872
vt 0.177332 0.664039
vt 0.222619 0.199417
vt 0.181556 0.688565
vt 0.159143 0.693307
vt 0.157585 0.714896
vt 0.158464 0.659989
vt 0.159744 0.681462
vt 0.158818 0.703888
vt 0.160181 0.670920
vt 0.157734 0.721075
vt 0.158222 0.653851
vt 0.159697 0.687352
vt 0.704529 0.446220
vt 0.702707 0.444162
vt 0.726503 0.445156
vt 0.727996 0.444181
vt 0.707057 0.455484
vt 0.704328 0.434697
vt 0.735875 0.460147
vt 0.735875 0.428354
vt 0.704444 0.444460
vt 0.726418 0.443395
vt 0.706065 0.434995
vt 0.734298 0.427569
vt 0.338708 0.285517
vt 0.333909 0.267858
vt 0.333911 0.286900
vt 0.325463 0.270850
vt 0.339629 0.285253
vt 0.335251 0.266710
vt 0.333045 0.287356
vt 0.344411 0.284271
vt 0.323778 0.270917
vt 0.344488 0.265429
vt 0.337459 0.289020
vt 0.328495 0.265803
vt 0.342306 0.287650
vt 0.327864 0.264296
vt 0.339133 0.261375
s 1
usemtl Material.003
f 9/11/1 10/12/2 4/4/3 3/3/3
f 3/3/4 4/4/4 8/9/4 7/7/4
f 11/13/5 12/15/6 6/6/7 5/5/7
f 5/5/8 6/6/8 2/2/8 1/1/8
f 12/14/9 10/12/9 2/2/9 6/6/9
f 8/9/10 4/4/10 10/12/10 12/14/10
f 7/8/11 8/10/11 12/15/6 11/13/5
f 1/1/12 2/2/12 10/12/2 9/11/1
f 30/34/13 22/25/13 16/19/13 26/29/13
f 42/51/14 23/26/14 20/23/14 38/45/14
f 29/33/15 24/27/15 18/21/15 28/32/15
f 41/50/16 21/24/16 14/17/16 40/49/16
f 44/55/17 39/47/17 17/20/17 27/31/17
f 43/53/18 40/49/18 14/17/18 26/29/18
f 54/70/19 47/62/19 21/24/19 41/50/19
f 52/67/20 50/65/20 24/27/20 29/33/20
f 53/69/21 49/64/21 23/26/21 42/51/21
f 51/66/22 48/63/22 22/25/22 30/34/22
f 47/62/23 51/66/23 30/34/23 21/24/23
f 49/64/24 52/67/24 29/33/24 23/26/24
f 38/46/25 43/53/25 26/29/25 16/19/25
f 37/43/26 44/56/26 27/30/26 19/22/26
f 23/26/27 29/33/27 28/32/27 20/23/27
f 21/24/28 30/34/28 26/29/28 14/17/28
f 19/22/29 27/30/30 36/42/30 32/36/29
f 13/16/31 25/28/32 35/40/32 34/39/31
f 25/28/32 15/18/33 31/35/33 35/40/32
f 37/43/34 19/22/34 32/36/34 45/59/34
f 27/31/30 17/20/35 33/37/35 36/41/30
f 39/48/36 13/16/36 34/39/36 46/61/36
f 17/20/37 39/47/37 46/60/37 33/37/37
f 15/18/38 37/44/38 45/58/38 31/35/38
f 15/18/39 25/28/39 44/57/39 37/44/39
f 20/23/40 28/32/40 43/54/40 38/45/40
f 48/63/41 53/68/41 42/52/41 22/25/41
f 50/65/42 54/70/42 41/50/42 24/27/42
f 28/32/43 18/21/43 40/49/43 43/54/43
f 25/28/44 13/16/44 39/48/44 44/57/44
f 24/27/45 41/50/45 40/49/45 18/21/45
f 22/25/46 42/52/46 38/46/46 16/19/46
f 33/38/47 46/61/47 54/70/47 50/65/47
f 31/35/48 45/58/48 53/68/48 48/63/48
f 32/36/49 36/42/49 52/67/49 49/64/49
f 34/39/50 35/40/50 51/66/50 47/62/50
f 35/40/51 31/35/51 48/63/51 51/66/51
f 45/59/52 32/36/52 49/64/52 53/69/52
f 36/42/53 33/38/53 50/65/53 52/67/53
f 46/61/54 34/39/54 47/62/54 54/70/54
f 55/71/55 56/73/55 58/77/55 57/75/55
f 61/81/56 62/82/56 60/80/56 59/79/56
f 59/79/57 60/80/57 56/73/57 55/71/57
f 57/76/58 61/81/58 59/79/58 55/72/58
f 62/82/59 58/78/59 56/74/59 60/80/59
f 71/93/60 65/85/61 66/86/61 72/94/62
f 65/85/63 69/89/63 70/91/63 66/86/63
f 73/95/64 67/87/65 68/88/65 74/97/66
f 67/87/67 63/83/67 64/84/67 68/88/67
f 74/96/68 68/88/68 64/84/68 72/94/68
f 70/91/69 74/96/69 72/94/69 66/86/69
f 69/90/70 73/95/64 74/97/66 70/92/70
f 63/83/71 71/93/60 72/94/62 64/84/71
