# Blender 3.3.1
# www.blender.org
mtllib misc011.mtl
o misc011
v 0.181777 0.008152 -0.001740
v 0.181777 0.008152 -0.011422
v 0.197496 0.008152 -0.001740
v 0.196026 0.013480 -0.002646
v 0.197496 0.008152 -0.011422
v 0.182319 0.013480 -0.002074
v 0.182319 0.013480 -0.011089
v 0.196954 0.013480 -0.011089
v 0.196954 0.013480 -0.002074
v 0.183247 0.009693 -0.002646
v 0.183247 0.009693 -0.010517
v 0.196026 0.009693 -0.010517
v 0.196026 0.009693 -0.002646
v 0.181777 0.009295 -0.001740
v 0.181777 0.012338 -0.001740
v 0.181963 0.012308 -0.011254
v 0.181777 0.009295 -0.011422
v 0.197496 0.012338 -0.011422
v 0.197496 0.009295 -0.011422
v 0.197496 0.012338 -0.001740
v 0.197496 0.009295 -0.001740
v 0.181292 0.008171 -0.011721
v 0.181292 0.008171 -0.001441
v 0.181292 0.012327 -0.001441
v 0.181292 0.013462 -0.001441
v 0.197981 0.008171 -0.011721
v 0.197981 0.009306 -0.011721
v 0.197981 0.008171 -0.001441
v 0.197981 0.009306 -0.001441
v 0.197981 0.012327 -0.011721
v 0.197981 0.012327 -0.001441
v 0.183209 0.013525 -0.003306
v 0.183963 0.013526 -0.002621
v 0.183238 0.010498 -0.002640
v 0.183247 0.012971 -0.010517
v 0.182695 0.013480 -0.010857
v 0.183230 0.013500 -0.007312
v 0.196578 0.013480 -0.010857
v 0.196026 0.012971 -0.010517
v 0.195912 0.013525 -0.008716
v 0.182070 0.013531 -0.011961
v 0.181351 0.013492 -0.010365
v 0.181963 0.013442 -0.011254
v 0.181351 0.012358 -0.010365
v 0.182070 0.012397 -0.011961
v 0.181870 0.010801 -0.011338
v 0.197496 0.011077 -0.011422
v 0.197496 0.010555 -0.011422
v 0.197086 0.010815 -0.011416
v 0.197496 0.010555 -0.001740
v 0.197496 0.011077 -0.001740
v 0.197086 0.010816 -0.001740
v 0.181777 0.011132 -0.001740
v 0.181783 0.010816 -0.002315
v 0.181777 0.010500 -0.001740
v 0.182710 0.010816 -0.001740
v 0.181292 0.008922 -0.011721
v 0.181662 0.009298 -0.011493
v 0.181662 0.009306 -0.011721
v 0.181662 0.009298 -0.001669
v 0.181292 0.008922 -0.001441
v 0.181662 0.009306 -0.001441
v 0.197602 0.013469 -0.011488
v 0.197981 0.012852 -0.011721
v 0.197602 0.013464 -0.011727
v 0.197981 0.012852 -0.001441
v 0.197602 0.013469 -0.001675
v 0.197602 0.013462 -0.001441
vn -0.0011 -0.9969 -0.0782
vn -0.0000 -0.0000 1.0000
vn -0.0000 -0.9981 -0.0622
vn -0.0000 -1.0000 -0.0000
vn 0.0018 0.9991 0.0421
vn 0.0010 0.9993 0.0366
vn 0.0014 0.9992 0.0392
vn -0.0000 -0.0000 -1.0000
vn -0.0004 0.0015 -1.0000
vn -0.0017 0.0058 -1.0000
vn -0.0020 0.0068 -1.0000
vn -0.0020 0.0067 -1.0000
vn -0.0500 0.9988 -0.0000
vn 0.0004 1.0000 -0.0007
vn 0.0038 1.0000 -0.0062
vn 0.0037 1.0000 -0.0060
vn 0.0037 1.0000 -0.0062
vn 0.8007 0.1360 0.5834
vn -0.0000 1.0000 -0.0000
vn 1.0000 -0.0000 -0.0000
vn 1.0000 0.0078 0.0033
vn 1.0000 0.0032 0.0011
vn 0.9999 0.0108 0.0052
vn 0.9999 0.0112 0.0055
vn 0.9999 0.0108 0.0053
vn 0.0849 0.9964 0.0057
vn -1.0000 -0.0000 -0.0000
vn -0.9955 -0.0872 -0.0363
vn -0.9998 -0.0000 0.0188
vn -0.0363 -0.9993 -0.0005
vn -0.0052 0.0562 -0.9984
vn -0.0109 -0.0000 -0.9999
vn -0.0113 -0.0060 -0.9999
vn -0.0113 -0.0056 -0.9999
vn -0.0114 -0.0072 -0.9999
vn -0.9981 0.0617 -0.0000
vn -1.0000 -0.0000 -0.0095
vn -1.0000 -0.0000 -0.0097
vn -1.0000 -0.0001 -0.0097
vn -0.0000 -0.9981 0.0622
vn -1.0000 -0.0000 -0.0067
vn 0.0151 -0.0000 -0.9999
vn -0.0000 0.9994 -0.0355
vn 0.0219 0.9998 -0.0000
vn 0.0383 -0.9993 -0.0000
vn -0.0383 -0.9993 -0.0000
vn -0.0000 -0.9994 -0.0356
vn 0.0035 0.9984 0.0573
vn 0.0002 0.9998 -0.0218
vn 0.0002 0.9997 -0.0227
vn -0.0000 0.9996 -0.0279
vn -0.0000 0.9996 -0.0294
vn -0.0219 0.9998 -0.0000
vn -0.0000 0.9996 0.0294
vn -0.0219 -0.9998 -0.0000
vn -0.3169 0.0818 -0.9449
vn 0.7097 0.6957 -0.1110
vn -0.7339 0.6348 -0.2417
vn -0.0000 0.5554 0.8316
vn -0.1520 0.9832 0.1008
vn -0.0609 0.9933 -0.0977
vn -0.9889 -0.0000 -0.1484
vn -0.8237 -0.0000 -0.5670
vn -0.0022 1.0000 0.0017
vn -0.2849 -0.8404 0.4610
vn -0.0000 0.0559 -0.9984
vn -0.0051 0.0029 -1.0000
vn -0.0141 0.0005 -0.9999
vn -0.0135 0.0007 -0.9999
vn -0.0160 -0.0000 -0.9999
vn -0.9980 0.0622 -0.0098
vn -0.9998 -0.0000 -0.0196
vn -0.9997 0.0148 -0.0177
vn 0.5377 -0.8431 0.0001
vn 0.5360 0.8442 -0.0001
vn -0.2852 0.8414 0.4590
vn -0.7190 0.6947 0.0218
vn -0.7190 0.6947 -0.0218
vn -0.7125 0.7016 -0.0000
vn -0.0000 0.9994 0.0355
vn 0.8501 0.5265 -0.0114
vn 0.8503 0.5261 -0.0099
vn 0.8499 0.5269 -0.0126
vn 0.8491 0.5279 0.0166
vn 0.8521 0.5234 -0.0000
vn 0.0181 0.9998 -0.0000
vt 0.405260 0.765884
vt 0.337032 0.765883
vt 0.405261 0.655113
vt 0.693010 0.575693
vt 0.060193 0.797658
vt 0.337033 0.655112
vt 0.695257 0.477904
vt 0.175053 0.875091
vt 0.490058 0.630396
vt 0.173365 0.811671
vt 0.485169 0.733231
vt 0.066617 0.857043
vt 0.697252 0.581799
vt 0.066812 0.793673
vt 0.665557 0.484826
vt 0.847592 0.683281
vt 0.142396 0.873364
vt 0.903058 0.683281
vt 0.141743 0.816248
vt 0.518854 0.638551
vt 0.903058 0.593229
vt 0.034490 0.854452
vt 0.514444 0.728378
vt 0.665557 0.573427
vt 0.847592 0.593229
vt 0.032151 0.798287
vt 0.731259 0.473482
vt 0.215243 0.876635
vt 0.193749 0.877018
vt 0.709673 0.473476
vt 0.470841 0.627241
vt 0.475375 0.622985
vt 0.188554 0.808720
vt 0.192511 0.809922
vt 0.213855 0.808306
vt 0.449534 0.625891
vt 0.470540 0.736896
vt 0.083339 0.859600
vt 0.107933 0.859876
vt 0.449097 0.736832
vt 0.083708 0.791452
vt 0.712011 0.584950
vt 0.733585 0.583639
vt 0.108412 0.791669
vt 0.223669 0.806009
vt 0.439509 0.622458
vt 0.334923 0.769304
vt 0.741260 0.471099
vt 0.225138 0.878562
vt 0.407370 0.769304
vt 0.190408 0.879237
vt 0.707532 0.470443
vt 0.699559 0.470937
vt 0.182405 0.879417
vt 0.119344 0.862098
vt 0.438943 0.740277
vt 0.334923 0.651692
vt 0.111340 0.862017
vt 0.446970 0.740338
vt 0.743771 0.585728
vt 0.119863 0.789675
vt 0.407370 0.651692
vt 0.735726 0.586558
vt 0.111854 0.789596
vt 0.472598 0.740348
vt 0.079916 0.861662
vt 0.709961 0.588176
vt 0.080282 0.789322
vt 0.169220 0.865579
vt 0.691863 0.490237
vt 0.148265 0.873292
vt 0.670975 0.484257
vt 0.164896 0.815802
vt 0.495717 0.637250
vt 0.170674 0.813415
vt 0.491571 0.633131
vt 0.168089 0.838774
vt 0.063988 0.855377
vt 0.486920 0.730682
vt 0.057434 0.853242
vt 0.491400 0.727053
vt 0.059659 0.839682
vt 0.483937 0.628256
vt 0.180364 0.816583
vt 0.489034 0.627789
vt 0.175865 0.810425
vt 0.483410 0.623186
vt 0.180526 0.808935
vt 0.188403 0.816354
vt 0.475872 0.628044
vt 0.460185 0.626567
vt 0.203187 0.809111
vt 0.461659 0.736869
vt 0.092206 0.859703
vt 0.457986 0.736856
vt 0.099052 0.859780
vt 0.459825 0.733967
vt 0.095633 0.859696
vt 0.724646 0.584205
vt 0.099505 0.791587
vt 0.092629 0.791526
vt 0.720929 0.584445
vt 0.096068 0.791556
vt 0.722732 0.581697
vt 0.202262 0.876868
vt 0.715802 0.472950
vt 0.204414 0.872779
vt 0.718200 0.470652
vt 0.206722 0.876798
vt 0.724727 0.472158
vt 0.722114 0.470333
vt 0.720664 0.478899
vt 0.444808 0.622509
vt 0.218356 0.806110
vt 0.214662 0.807788
vt 0.448838 0.624950
vt 0.447456 0.625417
vt 0.732029 0.472697
vt 0.733535 0.471240
vt 0.216069 0.877122
vt 0.735988 0.470739
vt 0.219826 0.878661
vt 0.733351 0.472873
vt 0.482151 0.737622
vt 0.071153 0.859912
vt 0.476295 0.740433
vt 0.076226 0.861617
vt 0.480559 0.737146
vt 0.706228 0.588314
vt 0.701113 0.591109
vt 0.076563 0.789293
vt 0.700168 0.586032
vt 0.071426 0.790895
vt 0.701834 0.586087
s 1
usemtl Material.003
f 18/37/1 16/31/1 45/90/1 30/65/1
f 28/60/2 29/63/2 23/48/2
f 23/48/2 29/63/2 61/121/2
f 29/63/2 62/123/2 61/121/2
f 5/6/3 2/2/3 22/47/3 26/57/3
f 2/2/4 5/6/4 3/3/4 1/1/4
f 4/4/5 33/70/5 6/7/6 9/13/7
f 13/24/8 10/15/9 4/4/10
f 10/15/9 34/72/11 4/4/10
f 34/72/11 33/70/12 4/4/10
f 6/8/13 32/69/13 7/10/13
f 7/10/14 32/69/15 36/75/16
f 32/69/15 37/77/17 36/75/16
f 32/69/18 6/8/18 34/71/18
f 12/21/19 11/18/19 10/16/19 13/25/19
f 11/19/20 35/73/21 10/17/22
f 35/73/21 37/77/23 10/17/22
f 10/17/22 37/77/23 34/71/24
f 37/77/23 32/69/25 34/71/24
f 9/14/19 8/12/19 4/5/19
f 8/12/19 38/78/19 4/5/19
f 38/78/26 40/82/26 4/5/26
f 12/22/27 13/26/27 39/80/27
f 39/80/28 13/26/28 40/82/28
f 4/5/29 40/82/29 13/26/29
f 16/34/30 15/29/30 24/51/30 44/89/30
f 31/67/2 66/129/2 24/52/2
f 66/129/2 68/134/2 24/52/2
f 68/134/2 25/53/2 24/52/2
f 46/91/31 16/31/31 49/97/31
f 18/37/32 47/93/33 16/31/34
f 16/31/34 47/93/33 49/97/35
f 23/49/27 61/122/27 57/114/27 22/45/27
f 17/35/36 14/28/36 46/92/36
f 55/109/37 54/107/38 14/28/38
f 14/28/38 54/107/38 46/92/39
f 1/1/40 3/3/40 28/62/40 23/50/40
f 21/43/2 50/99/2 14/27/2
f 50/99/2 52/104/2 14/27/2
f 55/110/2 14/27/2 56/112/2
f 52/104/2 56/112/2 14/27/2
f 30/66/20 64/127/20 66/131/20 31/68/20
f 24/51/41 25/54/41 42/84/41 44/89/41
f 41/83/42 65/128/42 45/90/42
f 30/65/42 45/90/42 64/126/42
f 45/90/42 65/128/42 64/126/42
f 29/63/43 21/43/43 62/123/43
f 21/43/43 14/27/43 62/123/43
f 14/27/43 60/118/43 62/123/43
f 26/55/20 27/58/20 29/64/20 28/61/20
f 14/28/44 17/35/44 58/115/44 60/120/44
f 22/46/8 57/113/8 26/56/8
f 57/113/8 59/117/8 26/56/8
f 59/117/8 27/59/8 26/56/8
f 3/3/45 5/6/45 26/57/45 28/62/45
f 2/2/46 1/1/46 23/50/46 22/47/46
f 15/30/47 20/42/47 31/67/47 24/52/47
f 41/83/48 7/9/48 65/128/48
f 65/128/49 7/9/50 63/124/51
f 7/9/50 8/11/52 63/124/51
f 19/39/53 21/44/53 29/64/53 27/58/53
f 25/53/54 68/134/54 6/7/6
f 68/134/54 67/132/54 6/7/6
f 9/13/7 6/7/6 67/132/54
f 20/41/55 18/38/55 30/66/55 31/68/55
f 6/7/56 33/70/56 34/72/56
f 36/76/16 38/79/19 8/11/19 7/9/14
f 35/73/57 36/75/57 37/77/57
f 38/78/58 39/80/58 40/82/58
f 35/74/59 39/81/59 38/79/59 36/76/59
f 39/81/2 35/74/2 11/20/2 12/23/2
f 41/83/60 43/85/60 7/9/60
f 43/86/61 42/84/61 7/10/61
f 41/83/62 45/90/62 16/32/62 43/87/62
f 43/88/63 16/33/63 44/89/63 42/84/63
f 6/8/64 7/10/64 42/84/64 25/54/64
f 53/106/65 54/108/65 56/112/65
f 47/94/20 18/38/20 20/41/20 51/101/20
f 17/36/66 46/91/66 19/40/66
f 46/91/67 49/97/68 19/40/69
f 49/97/68 48/95/70 19/40/69
f 46/92/71 54/107/71 16/34/71
f 15/29/72 16/34/72 53/105/72
f 54/107/73 53/105/73 16/34/73
f 47/94/74 51/101/74 52/103/74 49/98/74
f 49/98/75 52/103/75 50/100/75 48/96/75
f 19/39/20 48/96/20 50/100/20 21/44/20
f 54/108/76 55/111/76 56/112/76
f 20/42/2 15/30/2 51/102/2
f 51/102/2 15/30/2 52/104/2
f 53/106/2 56/112/2 15/30/2
f 52/104/2 15/30/2 56/112/2
f 57/113/77 58/116/77 59/117/77
f 60/119/78 61/121/78 62/123/78
f 60/120/79 58/115/79 57/114/79 61/122/79
f 27/59/80 59/117/80 19/40/80
f 19/40/80 59/117/80 17/36/80
f 17/36/80 59/117/80 58/116/80
f 63/124/81 64/126/82 65/128/83
f 66/130/84 67/132/84 68/134/84
f 63/125/81 67/133/85 66/131/85 64/127/82
f 8/12/86 9/14/86 67/133/86 63/125/86
