# Blender 3.3.1
# www.blender.org
mtllib misc07.mtl
o misc07
v 0.190844 0.015279 0.037326
v 0.191362 0.015279 0.037326
v 0.190844 0.015279 0.040116
v 0.191362 0.015279 0.040116
v 0.190844 0.016488 0.039419
v 0.191362 0.016488 0.039419
v 0.190844 0.016488 0.038023
v 0.191362 0.016488 0.038023
v 0.190844 0.015210 0.037447
v 0.191362 0.015210 0.037447
v 0.190844 0.015210 0.039996
v 0.191362 0.015210 0.039996
v 0.190844 0.016367 0.039349
v 0.191362 0.016367 0.039349
v 0.190844 0.016367 0.038093
v 0.191362 0.016367 0.038093
v 0.193696 0.007954 0.037032
v 0.193696 0.014065 0.037032
v 0.193733 0.007954 0.037250
v 0.193733 0.014065 0.037250
v 0.193605 0.007954 0.037429
v 0.193605 0.014065 0.037429
v 0.193387 0.007954 0.037466
v 0.193387 0.014065 0.037466
v 0.193208 0.007954 0.037338
v 0.193208 0.014065 0.037338
v 0.193171 0.007954 0.037120
v 0.193171 0.014065 0.037120
v 0.193299 0.007954 0.036941
v 0.193299 0.014065 0.036941
v 0.193517 0.007954 0.036904
v 0.193517 0.014065 0.036904
v 0.190970 0.007954 0.035565
v 0.190970 0.014065 0.035565
v 0.191176 0.007954 0.035644
v 0.191176 0.014065 0.035644
v 0.191265 0.007954 0.035846
v 0.191265 0.014065 0.035846
v 0.191186 0.007954 0.036052
v 0.191186 0.014065 0.036052
v 0.190984 0.007954 0.036141
v 0.190984 0.014065 0.036141
v 0.190779 0.007954 0.036062
v 0.190779 0.014065 0.036062
v 0.190689 0.007954 0.035861
v 0.190689 0.014065 0.035861
v 0.190768 0.007954 0.035655
v 0.190768 0.014065 0.035655
v 0.188321 0.007954 0.037168
v 0.188321 0.014065 0.037168
v 0.188494 0.007954 0.037031
v 0.188494 0.014065 0.037031
v 0.188713 0.007954 0.037056
v 0.188713 0.014065 0.037056
v 0.188850 0.007954 0.037229
v 0.188850 0.014065 0.037229
v 0.188825 0.007954 0.037448
v 0.188825 0.014065 0.037448
v 0.188652 0.007954 0.037585
v 0.188652 0.014065 0.037585
v 0.188432 0.007954 0.037560
v 0.188432 0.014065 0.037560
v 0.188295 0.007954 0.037387
v 0.188295 0.014065 0.037387
v 0.188355 0.007954 0.040264
v 0.188355 0.014065 0.040264
v 0.188325 0.007954 0.040046
v 0.188325 0.014065 0.040046
v 0.188458 0.007954 0.039870
v 0.188458 0.014065 0.039870
v 0.188677 0.007954 0.039839
v 0.188677 0.014065 0.039839
v 0.188853 0.007954 0.039973
v 0.188853 0.014065 0.039973
v 0.188883 0.007954 0.040191
v 0.188883 0.014065 0.040191
v 0.188750 0.007954 0.040367
v 0.188750 0.014065 0.040367
v 0.188531 0.007954 0.040397
v 0.188531 0.014065 0.040397
v 0.191040 0.007954 0.041808
v 0.191040 0.014065 0.041808
v 0.190836 0.007954 0.041722
v 0.190836 0.014065 0.041722
v 0.190752 0.007954 0.041519
v 0.190752 0.014065 0.041519
v 0.190837 0.007954 0.041315
v 0.190837 0.014065 0.041315
v 0.191041 0.007954 0.041231
v 0.191041 0.014065 0.041231
v 0.191245 0.007954 0.041316
v 0.191245 0.014065 0.041316
v 0.191329 0.007954 0.041520
v 0.191329 0.014065 0.041520
v 0.191244 0.007954 0.041724
v 0.191244 0.014065 0.041724
v 0.193733 0.007954 0.040280
v 0.193733 0.014065 0.040280
v 0.193556 0.007954 0.040412
v 0.193556 0.014065 0.040412
v 0.193338 0.007954 0.040380
v 0.193338 0.014065 0.040380
v 0.193206 0.007954 0.040204
v 0.193206 0.014065 0.040204
v 0.193237 0.007954 0.039985
v 0.193237 0.014065 0.039985
v 0.193414 0.007954 0.039853
v 0.193414 0.014065 0.039853
v 0.193632 0.007954 0.039885
v 0.193632 0.014065 0.039885
v 0.193764 0.007954 0.040061
v 0.193764 0.014065 0.040061
v 0.191049 0.007856 0.034975
v 0.191049 0.008262 0.034975
v 0.194262 0.007856 0.036831
v 0.194262 0.008262 0.036831
v 0.194262 0.007856 0.040541
v 0.194262 0.008262 0.040541
v 0.191049 0.007856 0.042396
v 0.191049 0.008262 0.042396
v 0.187835 0.007856 0.040541
v 0.187835 0.008262 0.040541
v 0.187835 0.007856 0.036831
v 0.187835 0.008262 0.036831
v 0.192065 0.015190 0.036925
v 0.192810 0.013702 0.035636
v 0.191049 0.015735 0.038686
v 0.192810 0.015190 0.037669
v 0.194099 0.013702 0.036925
v 0.193082 0.015190 0.038686
v 0.194571 0.013702 0.038686
v 0.192810 0.015190 0.039703
v 0.194099 0.013702 0.040447
v 0.192065 0.015190 0.040447
v 0.192810 0.013702 0.041736
v 0.191049 0.015190 0.040719
v 0.191049 0.013702 0.042208
v 0.190032 0.015190 0.040447
v 0.189288 0.013702 0.041736
v 0.189288 0.015190 0.039703
v 0.187998 0.013702 0.040447
v 0.189015 0.015190 0.038686
v 0.187526 0.013702 0.038686
v 0.189288 0.015190 0.037669
v 0.187998 0.013702 0.036925
v 0.190032 0.015190 0.036925
v 0.189288 0.013702 0.035636
v 0.191049 0.015190 0.036652
v 0.191049 0.013702 0.035164
v 0.191979 0.014915 0.037074
v 0.192695 0.013704 0.035835
v 0.191049 0.015410 0.038686
v 0.192660 0.014915 0.037755
v 0.193900 0.013704 0.037040
v 0.192909 0.014915 0.038686
v 0.194341 0.013704 0.038686
v 0.192660 0.014915 0.039616
v 0.193900 0.013704 0.040332
v 0.191979 0.014915 0.040297
v 0.192695 0.013704 0.041537
v 0.191049 0.014915 0.040547
v 0.191049 0.013704 0.041978
v 0.190118 0.014915 0.040297
v 0.189403 0.013704 0.041537
v 0.189437 0.014915 0.039616
v 0.188197 0.013704 0.040332
v 0.189188 0.014915 0.038686
v 0.187757 0.013704 0.038686
v 0.189437 0.014915 0.037755
v 0.188197 0.013704 0.037040
v 0.190118 0.014915 0.037074
v 0.189403 0.013704 0.035835
v 0.191049 0.014915 0.036825
v 0.191049 0.013704 0.035394
v 0.191049 0.010620 0.035259
v 0.191049 0.010994 0.035259
v 0.194016 0.010620 0.036973
v 0.194016 0.010994 0.036973
v 0.194016 0.010620 0.040399
v 0.194016 0.010994 0.040399
v 0.191049 0.010620 0.042112
v 0.191049 0.010994 0.042112
v 0.188081 0.010620 0.040399
v 0.188081 0.010994 0.040399
v 0.188081 0.010620 0.036973
v 0.188081 0.010994 0.036973
v 0.191049 0.010620 0.035499
v 0.191049 0.010994 0.035499
v 0.193808 0.010620 0.037093
v 0.193808 0.010994 0.037093
v 0.193808 0.010620 0.040279
v 0.193808 0.010994 0.040279
v 0.191049 0.010620 0.041872
v 0.191049 0.010994 0.041872
v 0.188289 0.010620 0.040279
v 0.188289 0.010994 0.040279
v 0.188289 0.010620 0.037093
v 0.188289 0.010994 0.037093
vn -0.0000 0.5000 0.8660
vn -0.0000 1.0000 -0.0000
vn -0.0000 0.5000 -0.8660
vn -0.0000 -0.4878 -0.8730
vn -0.0000 -1.0000 -0.0000
vn -0.0000 -0.4878 0.8730
vn -1.0000 -0.0000 -0.0000
vn 1.0000 -0.0000 -0.0000
vn 0.9864 -0.0000 -0.1646
vn 0.8137 -0.0000 0.5813
vn 0.1660 -0.0000 0.9861
vn -0.5812 -0.0000 0.8137
vn -0.9864 -0.0000 0.1646
vn -0.8149 -0.0000 -0.5796
vn -0.1644 -0.0000 -0.9864
vn 0.5813 -0.0000 -0.8137
vn 0.3599 -0.0000 -0.9330
vn 0.9135 -0.0000 -0.4069
vn 0.9332 -0.0000 0.3594
vn 0.4052 -0.0000 0.9142
vn -0.3587 -0.0000 0.9335
vn -0.9137 -0.0000 0.4064
vn -0.9330 -0.0000 -0.3599
vn -0.4064 -0.0000 -0.9137
vn -0.6208 -0.0000 -0.7840
vn 0.1148 -0.0000 -0.9934
vn 0.7840 -0.0000 -0.6208
vn 0.9934 -0.0000 0.1148
vn 0.6208 -0.0000 0.7840
vn -0.1148 -0.0000 0.9934
vn -0.7840 -0.0000 0.6208
vn -0.9934 -0.0000 -0.1148
vn -0.9906 -0.0000 0.1370
vn -0.7972 -0.0000 -0.6038
vn -0.1370 -0.0000 -0.9906
vn 0.6044 -0.0000 -0.7966
vn 0.9906 -0.0000 -0.1370
vn 0.7973 -0.0000 0.6035
vn 0.1369 -0.0000 0.9906
vn -0.6029 -0.0000 0.7978
vn -0.3859 -0.0000 0.9226
vn -0.9247 -0.0000 0.3807
vn -0.9225 -0.0000 -0.3859
vn -0.3802 -0.0000 -0.9249
vn 0.3859 -0.0000 -0.9226
vn 0.9252 -0.0000 -0.3795
vn 0.9230 -0.0000 0.3847
vn 0.3802 -0.0000 0.9249
vn 0.5989 -0.0000 0.8008
vn -0.1426 -0.0000 0.9898
vn -0.8008 -0.0000 0.5989
vn -0.9898 -0.0000 -0.1426
vn -0.5989 -0.0000 -0.8008
vn 0.1426 -0.0000 -0.9898
vn 0.8008 -0.0000 -0.5989
vn 0.9898 -0.0000 0.1426
vn 0.5001 -0.0000 -0.8660
vn 0.5000 -0.0000 0.8660
vn -0.5000 -0.0000 0.8660
vn -0.5000 -0.0000 -0.8660
vn 0.0692 0.9636 -0.2582
vn 0.1863 0.6947 -0.6947
vn 0.1890 0.9636 -0.1890
vn 0.5086 0.6947 -0.5086
vn 0.6947 0.6948 -0.1861
vn 0.2582 0.9636 -0.0692
vn 0.6947 0.6948 0.1861
vn 0.2582 0.9636 0.0692
vn 0.5085 0.6948 0.5086
vn 0.1890 0.9636 0.1890
vn 0.1861 0.6947 0.6948
vn 0.0691 0.9636 0.2582
vn -0.1861 0.6947 0.6948
vn -0.0691 0.9636 0.2582
vn -0.1890 0.9636 0.1890
vn -0.5086 0.6947 0.5086
vn -0.2582 0.9636 0.0692
vn -0.6947 0.6948 0.1861
vn -0.2582 0.9636 -0.0692
vn -0.6947 0.6948 -0.1861
vn -0.1890 0.9636 -0.1890
vn -0.5086 0.6947 -0.5086
vn -0.0692 0.9636 -0.2582
vn -0.1862 0.6947 -0.6947
vn -0.0688 -0.9641 0.2566
vn -0.1706 -0.7524 0.6363
vn -0.1878 -0.9641 0.1878
vn -0.4657 -0.7524 0.4658
vn -0.6362 -0.7524 0.1705
vn -0.2566 -0.9641 0.0688
vn -0.6362 -0.7524 -0.1705
vn -0.2566 -0.9641 -0.0688
vn -0.4657 -0.7524 -0.4658
vn -0.1878 -0.9641 -0.1879
vn -0.1705 -0.7524 -0.6362
vn -0.0688 -0.9641 -0.2566
vn 0.1705 -0.7524 -0.6363
vn 0.0688 -0.9641 -0.2566
vn 0.1878 -0.9641 -0.1879
vn 0.4657 -0.7524 -0.4658
vn 0.2566 -0.9641 -0.0687
vn 0.6362 -0.7524 -0.1705
vn 0.2565 -0.9641 0.0687
vn 0.6362 -0.7524 0.1705
vn 0.1878 -0.9641 0.1878
vn 0.4657 -0.7524 0.4658
vn 0.0687 -0.9641 0.2566
vn 0.1705 -0.7524 0.6363
vn -0.0056 -0.9999 0.0097
vn -0.0097 -0.9999 0.0056
vn -0.0112 -0.9999 -0.0000
vn -0.0097 -0.9999 -0.0056
vn -0.0056 -0.9999 -0.0097
vn -0.0000 -0.9999 -0.0113
vn 0.0056 -0.9999 -0.0097
vn 0.0097 -0.9999 -0.0056
vn 0.0113 -0.9999 -0.0000
vn 0.0097 -0.9999 0.0056
vn 0.0056 -0.9999 0.0097
vn -0.0000 -0.9999 0.0113
vn 0.5000 -0.0000 -0.8660
vn -0.4999 -0.0000 0.8661
vn 0.4999 -0.0000 -0.8661
vt 0.882293 0.275175
vt 0.878407 0.275329
vt 0.882201 0.303546
vt 0.878312 0.303610
vt 0.882120 0.294038
vt 0.878511 0.293927
vt 0.882142 0.284807
vt 0.878525 0.284750
vt 0.883308 0.275235
vt 0.887045 0.275489
vt 0.877405 0.275411
vt 0.883217 0.303498
vt 0.886923 0.303293
vt 0.877312 0.303524
vt 0.882957 0.294009
vt 0.886650 0.293911
vt 0.877695 0.293878
vt 0.882953 0.284843
vt 0.886647 0.284951
vt 0.877687 0.284797
vt 0.264678 0.926432
vt 0.221616 0.926432
vt 0.264678 0.924878
vt 0.221616 0.924878
vt 0.264678 0.923323
vt 0.221616 0.923323
vt 0.264678 0.921769
vt 0.264678 0.934205
vt 0.221616 0.921769
vt 0.221616 0.934205
vt 0.264678 0.932650
vt 0.221616 0.932650
vt 0.264678 0.931096
vt 0.221616 0.931096
vt 0.264678 0.929541
vt 0.221616 0.929541
vt 0.264678 0.927987
vt 0.221616 0.927987
vt 0.011719 0.932030
vt 0.054781 0.932030
vt 0.011719 0.933585
vt 0.054781 0.933585
vt 0.011719 0.935139
vt 0.054781 0.935139
vt 0.011719 0.936694
vt 0.011719 0.924258
vt 0.054781 0.936694
vt 0.054781 0.924258
vt 0.011719 0.925812
vt 0.054781 0.925812
vt 0.011719 0.927367
vt 0.054781 0.927367
vt 0.011719 0.928921
vt 0.054781 0.928921
vt 0.011719 0.930476
vt 0.054781 0.930476
vt 0.440800 0.925039
vt 0.483863 0.925039
vt 0.440800 0.926593
vt 0.483863 0.926593
vt 0.440800 0.928148
vt 0.483863 0.928148
vt 0.440800 0.929702
vt 0.483863 0.929702
vt 0.440800 0.931257
vt 0.440800 0.918821
vt 0.483863 0.931257
vt 0.483863 0.918821
vt 0.440800 0.920376
vt 0.483863 0.920376
vt 0.440800 0.921930
vt 0.483863 0.921930
vt 0.440800 0.923485
vt 0.483863 0.923485
vt 0.169606 0.925709
vt 0.212669 0.925709
vt 0.169606 0.927263
vt 0.212669 0.927263
vt 0.169606 0.928818
vt 0.212669 0.928818
vt 0.169606 0.930372
vt 0.212669 0.930372
vt 0.169606 0.931927
vt 0.169606 0.919491
vt 0.212669 0.931927
vt 0.212669 0.919491
vt 0.169606 0.921046
vt 0.212669 0.921046
vt 0.169606 0.922600
vt 0.212669 0.922600
vt 0.169606 0.924155
vt 0.212669 0.924155
vt 0.251336 0.759841
vt 0.294398 0.759841
vt 0.251336 0.761395
vt 0.294398 0.761395
vt 0.251336 0.762949
vt 0.294398 0.762949
vt 0.251336 0.764504
vt 0.294398 0.764504
vt 0.251336 0.766058
vt 0.294398 0.766058
vt 0.251336 0.767613
vt 0.251336 0.755177
vt 0.294398 0.767613
vt 0.294398 0.755177
vt 0.251336 0.756732
vt 0.294398 0.756732
vt 0.251336 0.758286
vt 0.294398 0.758286
vt 0.739857 0.757866
vt 0.782920 0.757866
vt 0.739857 0.759421
vt 0.782920 0.759421
vt 0.739857 0.760975
vt 0.782920 0.760975
vt 0.739857 0.762530
vt 0.782920 0.762530
vt 0.739857 0.764084
vt 0.782920 0.764084
vt 0.739857 0.765638
vt 0.782920 0.765639
vt 0.739857 0.767193
vt 0.739857 0.754757
vt 0.782920 0.767193
vt 0.782920 0.754757
vt 0.739857 0.756312
vt 0.782920 0.756312
vt 0.614190 0.584712
vt 0.509599 0.630001
vt 0.509599 0.536564
vt 0.614190 0.581853
vt 0.640338 0.584712
vt 0.496525 0.607356
vt 0.640338 0.581853
vt 0.496525 0.559209
vt 0.666485 0.584712
vt 0.509599 0.584712
vt 0.666485 0.581853
vt 0.509599 0.581853
vt 0.535747 0.584712
vt 0.535747 0.581853
vt 0.561894 0.584712
vt 0.548821 0.607356
vt 0.548820 0.559209
vt 0.561894 0.581853
vt 0.588042 0.584712
vt 0.535747 0.630001
vt 0.535747 0.536564
vt 0.588042 0.581853
vt 0.027148 0.469055
vt 0.013137 0.473532
vt 0.772293 0.891910
vt 0.041223 0.463588
vt 0.031185 0.474992
vt 0.020294 0.485094
vt 0.779553 0.902928
vt 0.037497 0.478643
vt 0.046665 0.478308
vt 0.031312 0.492478
vt 0.054312 0.491150
vt 0.781101 0.916170
vt 0.052548 0.473818
vt 0.064188 0.482735
vt 0.776396 0.928725
vt 0.055859 0.467400
vt 0.070089 0.470762
vt 0.766403 0.937726
vt 0.055983 0.460285
vt 0.070267 0.457202
vt 0.753357 0.941090
vt 0.052914 0.453926
vt 0.064368 0.444859
vt 0.740223 0.938027
vt 0.047311 0.449662
vt 0.053506 0.436436
vt 0.729998 0.929229
vt 0.040386 0.448407
vt 0.039978 0.433809
vt 0.724997 0.916710
vt 0.033640 0.450437
vt 0.026704 0.437583
vt 0.726299 0.903331
vt 0.028540 0.455318
vt 0.016559 0.446949
vt 0.733460 0.892076
vt 0.026204 0.462002
vt 0.011719 0.459865
vt 0.744669 0.885312
vt 0.761113 0.885327
vt 0.762083 0.902482
vt 0.771180 0.893085
vt 0.753014 0.912792
vt 0.765797 0.907964
vt 0.778031 0.903480
vt 0.766570 0.914479
vt 0.779492 0.915974
vt 0.764251 0.920586
vt 0.775055 0.927813
vt 0.759369 0.924913
vt 0.765633 0.936298
vt 0.753035 0.926478
vt 0.753334 0.939468
vt 0.746696 0.924921
vt 0.740953 0.936578
vt 0.741799 0.920594
vt 0.731314 0.928282
vt 0.739470 0.914480
vt 0.726601 0.916476
vt 0.740247 0.907968
vt 0.727832 0.903856
vt 0.743968 0.902528
vt 0.734587 0.893238
vt 0.756189 0.899209
vt 0.749837 0.899310
vt 0.745107 0.886876
vt 0.760693 0.886898
vt 0.940068 0.785073
vt 0.942803 0.785073
vt 0.940054 0.807543
vt 0.942764 0.807551
vt 0.940189 0.831310
vt 0.940455 0.693965
vt 0.942978 0.831286
vt 0.943243 0.693952
vt 0.940455 0.717654
vt 0.943164 0.717673
vt 0.940291 0.740130
vt 0.943026 0.740135
vt 0.940156 0.762600
vt 0.942892 0.762603
vt 0.946998 0.785094
vt 0.938609 0.785044
vt 0.944262 0.785105
vt 0.946964 0.807544
vt 0.938613 0.807521
vt 0.944228 0.807572
vt 0.947248 0.830317
vt 0.947491 0.694830
vt 0.938669 0.830441
vt 0.938915 0.694872
vt 0.944512 0.830371
vt 0.944754 0.694802
vt 0.947338 0.717709
vt 0.938992 0.717634
vt 0.944603 0.717696
vt 0.947220 0.740173
vt 0.938831 0.740094
vt 0.944484 0.740172
vt 0.947086 0.762635
vt 0.938697 0.762568
vt 0.944351 0.762638
s 1
usemtl Material.003
f 3/3/1 4/4/1 6/6/1 5/5/1
f 5/5/2 6/6/2 8/8/2 7/7/2
f 7/7/3 8/8/3 2/2/3 1/1/3
f 11/12/4 13/15/4 14/16/4 12/13/4
f 13/15/5 15/18/5 16/19/5 14/16/5
f 15/18/6 9/9/6 10/10/6 16/19/6
f 3/3/7 5/5/7 13/15/7 11/12/7
f 6/6/8 4/4/8 12/14/8 14/17/8
f 5/5/7 7/7/7 15/18/7 13/15/7
f 8/8/8 6/6/8 14/17/8 16/20/8
f 7/7/7 1/1/7 9/9/7 15/18/7
f 2/2/8 8/8/8 16/20/8 10/11/8
f 17/21/9 18/22/9 20/24/9 19/23/9
f 19/23/10 20/24/10 22/26/10 21/25/10
f 21/25/11 22/26/11 24/29/11 23/27/11
f 23/28/12 24/30/12 26/32/12 25/31/12
f 25/31/13 26/32/13 28/34/13 27/33/13
f 27/33/14 28/34/14 30/36/14 29/35/14
f 29/35/15 30/36/15 32/38/15 31/37/15
f 31/37/16 32/38/16 18/22/16 17/21/16
f 33/39/17 34/40/17 36/42/17 35/41/17
f 35/41/18 36/42/18 38/44/18 37/43/18
f 37/43/19 38/44/19 40/47/19 39/45/19
f 39/46/20 40/48/20 42/50/20 41/49/20
f 41/49/21 42/50/21 44/52/21 43/51/21
f 43/51/22 44/52/22 46/54/22 45/53/22
f 45/53/23 46/54/23 48/56/23 47/55/23
f 47/55/24 48/56/24 34/40/24 33/39/24
f 49/57/25 50/58/25 52/60/25 51/59/25
f 51/59/26 52/60/26 54/62/26 53/61/26
f 53/61/27 54/62/27 56/64/27 55/63/27
f 55/63/28 56/64/28 58/67/28 57/65/28
f 57/66/29 58/68/29 60/70/29 59/69/29
f 59/69/30 60/70/30 62/72/30 61/71/30
f 61/71/31 62/72/31 64/74/31 63/73/31
f 63/73/32 64/74/32 50/58/32 49/57/32
f 65/75/33 66/76/33 68/78/33 67/77/33
f 67/77/34 68/78/34 70/80/34 69/79/34
f 69/79/35 70/80/35 72/82/35 71/81/35
f 71/81/36 72/82/36 74/85/36 73/83/36
f 73/84/37 74/86/37 76/88/37 75/87/37
f 75/87/38 76/88/38 78/90/38 77/89/38
f 77/89/39 78/90/39 80/92/39 79/91/39
f 79/91/40 80/92/40 66/76/40 65/75/40
f 81/93/41 82/94/41 84/96/41 83/95/41
f 83/95/42 84/96/42 86/98/42 85/97/42
f 85/97/43 86/98/43 88/100/43 87/99/43
f 87/99/44 88/100/44 90/102/44 89/101/44
f 89/101/45 90/102/45 92/105/45 91/103/45
f 91/104/46 92/106/46 94/108/46 93/107/46
f 93/107/47 94/108/47 96/110/47 95/109/47
f 95/109/48 96/110/48 82/94/48 81/93/48
f 97/111/49 98/112/49 100/114/49 99/113/49
f 99/113/50 100/114/50 102/116/50 101/115/50
f 101/115/51 102/116/51 104/118/51 103/117/51
f 103/117/52 104/118/52 106/120/52 105/119/52
f 105/119/53 106/120/53 108/122/53 107/121/53
f 107/121/54 108/122/54 110/125/54 109/123/54
f 109/124/55 110/126/55 112/128/55 111/127/55
f 111/127/56 112/128/56 98/112/56 97/111/56
f 113/129/57 114/132/57 116/135/57 115/133/57
f 115/133/8 116/135/8 118/139/8 117/137/8
f 117/138/58 118/140/58 120/142/58 119/141/58
f 119/141/59 120/142/59 122/146/59 121/143/59
f 116/136/2 114/131/2 118/140/2
f 114/131/2 124/149/2 118/140/2
f 124/149/2 122/145/2 118/140/2
f 122/145/2 120/142/2 118/140/2
f 121/143/7 122/146/7 124/150/7 123/147/7
f 123/147/60 124/150/60 114/132/60 113/129/60
f 113/130/5 115/134/5 123/148/5
f 115/134/5 117/138/5 123/148/5
f 117/138/5 119/141/5 123/148/5
f 119/141/5 121/144/5 123/148/5
f 148/187/61 127/154/61 125/151/61
f 149/188/62 148/187/62 125/151/62 126/152/62
f 125/151/63 127/154/63 128/155/63
f 126/152/64 125/151/64 128/155/64 129/156/64
f 129/156/65 128/155/65 130/158/65 131/160/65
f 128/155/66 127/154/66 130/158/66
f 131/161/67 130/159/67 132/163/67 133/164/67
f 130/159/68 127/154/68 132/163/68
f 133/164/69 132/163/69 134/166/69 135/167/69
f 132/163/70 127/154/70 134/166/70
f 135/167/71 134/166/71 136/169/71 137/170/71
f 134/166/72 127/154/72 136/169/72
f 137/170/73 136/169/73 138/172/73 139/173/73
f 136/169/74 127/154/74 138/172/74
f 138/172/75 127/154/75 140/175/75
f 139/173/76 138/172/76 140/175/76 141/176/76
f 140/175/77 127/154/77 142/178/77
f 141/176/78 140/175/78 142/178/78 143/179/78
f 142/178/79 127/154/79 144/181/79
f 143/179/80 142/178/80 144/181/80 145/182/80
f 144/181/81 127/154/81 146/184/81
f 145/182/82 144/181/82 146/184/82 147/185/82
f 146/184/83 127/154/83 148/187/83
f 147/185/84 146/184/84 148/187/84 149/188/84
f 173/214/85 150/191/85 152/193/85
f 174/217/86 151/192/86 150/191/86 173/214/86
f 150/191/87 153/194/87 152/193/87
f 151/192/88 154/195/88 153/194/88 150/191/88
f 154/195/89 156/197/89 155/196/89 153/194/89
f 153/194/90 155/196/90 152/193/90
f 156/197/91 158/199/91 157/198/91 155/196/91
f 155/196/92 157/198/92 152/193/92
f 158/199/93 160/201/93 159/200/93 157/198/93
f 157/198/94 159/200/94 152/193/94
f 160/201/95 162/203/95 161/202/95 159/200/95
f 159/200/96 161/202/96 152/193/96
f 162/203/97 164/205/97 163/204/97 161/202/97
f 161/202/98 163/204/98 152/193/98
f 163/204/99 165/206/99 152/193/99
f 164/205/100 166/207/100 165/206/100 163/204/100
f 165/206/101 167/208/101 152/193/101
f 166/207/102 168/209/102 167/208/102 165/206/102
f 167/208/103 169/210/103 152/193/103
f 168/209/104 170/211/104 169/210/104 167/208/104
f 169/210/105 171/212/105 152/193/105
f 170/211/106 172/213/106 171/212/106 169/210/106
f 171/212/107 173/215/107 152/193/107
f 172/213/108 174/216/108 173/215/108 171/212/108
f 126/153/109 129/157/110 154/195/110 151/192/109
f 129/157/110 131/162/111 156/197/111 154/195/110
f 131/162/111 133/165/112 158/199/112 156/197/111
f 133/165/112 135/168/113 160/201/113 158/199/112
f 135/168/113 137/171/114 162/203/114 160/201/113
f 137/171/114 139/174/115 164/205/115 162/203/114
f 139/174/115 141/177/116 166/207/116 164/205/115
f 141/177/116 143/180/117 168/209/117 166/207/116
f 143/180/117 145/183/118 170/211/118 168/209/117
f 145/183/118 147/186/119 172/213/119 170/211/118
f 147/186/119 149/189/120 174/216/120 172/213/119
f 149/190/120 126/153/109 151/192/109 174/217/120
f 175/218/121 176/219/121 178/221/121 177/220/121
f 177/220/8 178/221/8 180/224/8 179/222/8
f 179/223/58 180/225/58 182/227/58 181/226/58
f 181/226/122 182/227/122 184/229/122 183/228/122
f 183/228/7 184/229/7 186/231/7 185/230/7
f 185/230/60 186/231/60 176/219/60 175/218/60
f 187/232/59 189/235/59 190/237/59 188/234/59
f 189/235/7 191/238/7 192/242/7 190/237/7
f 191/239/60 193/244/60 194/246/60 192/243/60
f 193/244/123 195/247/123 196/249/123 194/246/123
f 195/247/8 197/250/8 198/252/8 196/249/8
f 197/250/58 187/232/58 188/234/58 198/252/58
f 175/218/5 177/220/5 189/236/5 187/233/5
f 178/221/2 176/219/2 188/234/2 190/237/2
f 177/220/5 179/222/5 191/240/5 189/236/5
f 180/224/2 178/221/2 190/237/2 192/242/2
f 179/223/5 181/226/5 193/245/5 191/241/5
f 182/227/2 180/225/2 192/243/2 194/246/2
f 181/226/5 183/228/5 195/248/5 193/245/5
f 184/229/2 182/227/2 194/246/2 196/249/2
f 183/228/5 185/230/5 197/251/5 195/248/5
f 186/231/2 184/229/2 196/249/2 198/252/2
f 185/230/5 175/218/5 187/233/5 197/251/5
f 176/219/2 186/231/2 198/252/2 188/234/2
