# Blender 3.3.1
# www.blender.org
mtllib misc018.mtl
o misc018
v 0.192077 0.013247 -0.039088
v 0.192077 0.020373 -0.039088
v 0.192077 0.013247 -0.043998
v 0.192077 0.020373 -0.043998
v 0.196987 0.013247 -0.039088
v 0.196987 0.020373 -0.039088
v 0.196987 0.013247 -0.043998
v 0.196987 0.020373 -0.043998
v 0.191539 0.012466 -0.041543
v 0.191539 0.016810 -0.038551
v 0.191539 0.021153 -0.041543
v 0.191539 0.016810 -0.044536
v 0.194532 0.012466 -0.044536
v 0.194532 0.021153 -0.044536
v 0.197525 0.016810 -0.044536
v 0.197525 0.012466 -0.041543
v 0.197525 0.021153 -0.041543
v 0.197525 0.016810 -0.038551
v 0.194532 0.012466 -0.038551
v 0.194532 0.021153 -0.038551
v 0.190410 0.016810 -0.041543
v 0.194532 0.016810 -0.045665
v 0.198653 0.016810 -0.041543
v 0.194532 0.016810 -0.037422
v 0.194532 0.010828 -0.041543
v 0.194532 0.022792 -0.041543
vn -0.9245 -0.2163 0.3139
vn -0.9245 0.2163 0.3139
vn -0.9245 0.2163 -0.3139
vn -0.9245 -0.2163 -0.3139
vn -0.3138 -0.2162 -0.9245
vn -0.3138 0.2162 -0.9245
vn 0.3138 0.2162 -0.9245
vn 0.3138 -0.2162 -0.9245
vn 0.9245 -0.2162 -0.3138
vn 0.9245 0.2162 -0.3138
vn 0.9245 0.2162 0.3138
vn 0.9245 -0.2162 0.3138
vn 0.3139 -0.2163 0.9245
vn 0.3139 0.2163 0.9245
vn -0.3139 0.2163 0.9245
vn -0.3139 -0.2163 0.9245
vn -0.4043 -0.8204 -0.4043
vn 0.4043 -0.8204 -0.4043
vn 0.4043 -0.8204 0.4043
vn -0.4043 -0.8204 0.4043
vn 0.4043 0.8204 -0.4043
vn -0.4043 0.8204 -0.4043
vn -0.4043 0.8204 0.4043
vn 0.4043 0.8204 0.4043
vt 0.096038 0.517901
vt 0.251411 0.519063
vt 0.214827 0.558833
vt 0.096550 0.463744
vt 0.251873 0.464525
vt 0.212795 0.424445
vt 0.134471 0.517324
vt 0.174602 0.558424
vt 0.134937 0.465058
vt 0.172568 0.424311
vt 0.212987 0.518031
vt 0.213346 0.464852
vt 0.174386 0.518161
vt 0.174750 0.464949
vt 0.115297 0.522543
vt 0.194109 0.562380
vt 0.091591 0.490778
vt 0.256418 0.491838
vt 0.115886 0.459474
vt 0.193256 0.420621
vt 0.134087 0.491186
vt 0.154386 0.522865
vt 0.171269 0.539102
vt 0.154909 0.459881
vt 0.169998 0.444906
vt 0.174272 0.491500
vt 0.194219 0.519400
vt 0.193527 0.463600
vt 0.214045 0.491501
vt 0.232043 0.523420
vt 0.217573 0.538224
vt 0.232559 0.459814
vt 0.216291 0.443771
vt 0.113326 0.490989
vt 0.154275 0.491368
vt 0.194093 0.491500
vt 0.234716 0.491639
vt 0.194126 0.540207
vt 0.193431 0.442794
s 1
usemtl Material.003
f 1/1/1 10/17/1 21/34/1 9/15/1
f 10/17/2 2/4/2 11/19/2 21/34/2
f 21/34/3 11/19/3 4/9/3 12/21/3
f 9/15/4 21/34/4 12/21/4 3/7/4
f 3/7/5 12/21/5 22/35/5 13/22/5
f 12/21/6 4/9/6 14/24/6 22/35/6
f 22/35/7 14/24/7 8/14/7 15/26/7
f 13/22/8 22/35/8 15/26/8 7/13/8
f 7/13/9 15/26/9 23/36/9 16/27/9
f 15/26/10 8/14/10 17/28/10 23/36/10
f 23/36/11 17/28/11 6/12/11 18/29/11
f 16/27/12 23/36/12 18/29/12 5/11/12
f 5/11/13 18/29/13 24/37/13 19/30/13
f 18/29/14 6/12/14 20/32/14 24/37/14
f 24/37/15 20/32/15 2/5/15 10/18/15
f 19/30/16 24/37/16 10/18/16 1/2/16
f 3/8/17 13/23/17 25/38/17 9/16/17
f 13/23/18 7/13/18 16/27/18 25/38/18
f 25/38/19 16/27/19 5/11/19 19/31/19
f 9/16/20 25/38/20 19/31/20 1/3/20
f 8/14/21 14/25/21 26/39/21 17/28/21
f 14/25/22 4/10/22 11/20/22 26/39/22
f 26/39/23 11/20/23 2/6/23 20/33/23
f 17/28/24 26/39/24 20/33/24 6/12/24
