# Blender 3.3.1
# www.blender.org
mtllib misc010.mtl
o misc010
v 0.207744 0.007957 -0.001740
v 0.209214 0.013285 -0.002646
v 0.207744 0.007957 -0.011422
v 0.209214 0.013285 -0.010517
v 0.223463 0.007957 -0.001740
v 0.221993 0.013285 -0.002646
v 0.223463 0.007957 -0.011422
v 0.221993 0.013285 -0.010517
v 0.208350 0.013285 -0.002114
v 0.208396 0.013285 -0.011020
v 0.222723 0.013285 -0.010967
v 0.222827 0.013285 -0.002132
v 0.209214 0.009497 -0.002646
v 0.209214 0.009497 -0.010517
v 0.221993 0.009497 -0.010517
v 0.221993 0.009497 -0.002646
v 0.207744 0.009099 -0.001740
v 0.207744 0.012142 -0.001740
v 0.207744 0.012142 -0.011422
v 0.207744 0.009099 -0.011422
v 0.223463 0.012142 -0.011422
v 0.223463 0.009099 -0.011422
v 0.223463 0.012142 -0.001740
v 0.223463 0.009099 -0.001740
v 0.207259 0.007975 -0.011721
v 0.207259 0.007975 -0.001441
v 0.207259 0.009110 -0.011721
v 0.223948 0.007975 -0.011721
v 0.223948 0.009110 -0.011721
v 0.223948 0.007975 -0.001441
v 0.223948 0.009110 -0.001441
v 0.207259 0.009110 -0.001441
v 0.207259 0.012131 -0.011721
v 0.223948 0.012131 -0.011721
v 0.223938 0.012121 -0.001537
v 0.223394 0.013266 -0.001441
v 0.223948 0.013266 -0.001782
v 0.207744 0.010621 -0.011422
v 0.207899 0.012131 -0.001445
v 0.207259 0.012131 -0.001836
v 0.207711 0.012141 -0.001720
v 0.207259 0.013266 -0.001836
v 0.207899 0.013266 -0.001441
v 0.207711 0.013274 -0.001720
v 0.207744 0.010997 -0.001740
v 0.207744 0.010621 -0.002844
v 0.207744 0.010244 -0.001740
v 0.210620 0.010621 -0.001740
v 0.207889 0.013276 -0.011333
v 0.207259 0.012721 -0.011721
v 0.207259 0.013266 -0.011332
v 0.223948 0.012721 -0.011721
v 0.223317 0.013276 -0.011333
v 0.223948 0.013266 -0.011332
v 0.223463 0.010755 -0.011422
v 0.223463 0.010486 -0.011422
v 0.221600 0.010621 -0.011422
v 0.223463 0.010486 -0.001740
v 0.223463 0.010755 -0.001740
v 0.221876 0.010621 -0.001740
v 0.223130 0.010674 -0.001742
v 0.223130 0.010666 -0.011424
vn -0.0012 -0.9950 -0.0997
vn -0.0009 -0.9993 -0.0369
vn -0.0005 -0.9993 -0.0371
vn -0.0006 -0.9993 -0.0370
vn -0.0000 -0.9993 -0.0373
vn -0.0163 0.9999 -0.0000
vn -0.0166 0.9999 -0.0000
vn -0.0164 0.9999 -0.0000
vn -0.0168 0.9999 -0.0000
vn -0.0171 0.9999 -0.0001
vn 0.0219 0.9998 -0.0000
vn -0.0000 -0.9981 -0.0621
vn -0.0000 -1.0000 -0.0000
vn -0.0000 -0.0000 -1.0000
vn -0.0000 1.0000 -0.0000
vn -0.0000 -0.0000 1.0000
vn -1.0000 -0.0000 -0.0000
vn 1.0000 -0.0000 -0.0000
vn -0.0000 -0.9994 0.0356
vn -0.1230 -0.9392 0.3206
vn -0.0003 -0.0046 -1.0000
vn -0.0000 0.9994 0.0356
vn 0.0006 0.0069 1.0000
vn 0.0004 0.0046 1.0000
vn -0.0000 -0.9981 0.0622
vn 1.0000 -0.0083 0.0010
vn 1.0000 -0.0060 0.0007
vn 1.0000 -0.0014 0.0002
vn 0.0166 0.9999 -0.0000
vn 0.0162 0.9999 -0.0001
vn 0.0155 0.9999 -0.0001
vn 0.0152 0.9999 -0.0002
vn 0.0151 0.9999 -0.0002
vn -0.0000 0.9994 -0.0356
vn 0.0383 -0.9993 -0.0000
vn -0.0383 -0.9993 -0.0000
vn 0.0001 0.9997 -0.0256
vn 0.0219 -0.9998 -0.0000
vn 0.0219 -0.9998 0.0001
vn -0.0219 0.9998 -0.0000
vn -0.0000 0.9996 0.0270
vn -0.0000 0.9996 0.0273
vn -0.0000 0.9996 0.0277
vn -0.0330 -0.9995 -0.0005
vn 0.3828 0.6835 0.6215
vn -0.0006 -0.0080 -1.0000
vn 0.0381 -0.9973 -0.0634
vn -0.0291 0.9985 0.0472
vn -0.5228 -0.0014 0.8525
vn 0.0029 -0.0426 0.9991
vn -0.1230 0.9392 0.3206
vn -0.0082 0.5793 -0.8151
vn -0.0099 0.5805 -0.8142
vn -0.0101 0.5807 -0.8141
vn 0.0091 0.5805 -0.8142
vn 0.0076 0.5793 -0.8151
vn 0.0093 0.5807 -0.8141
vn -0.0018 0.0244 -0.9997
vn 0.0008 0.0100 0.9999
vn 0.2466 -0.9691 0.0004
vn 0.4841 0.8750 -0.0004
vn -0.0007 -0.0101 -0.9999
vn 0.0026 -0.0306 0.9995
vt 0.748897 0.712874
vt 0.654878 0.617539
vt 0.818556 0.194819
vt 0.680669 0.712873
vt 0.278024 0.733791
vt 0.818556 0.139352
vt 0.748898 0.602103
vt 0.564483 0.620232
vt 0.801124 0.846892
vt 0.680670 0.602102
vt 0.278027 0.643739
vt 0.801124 0.791425
vt 0.824644 0.198569
vt 0.660757 0.621246
vt 0.824315 0.135805
vt 0.281572 0.739551
vt 0.795978 0.788255
vt 0.281196 0.638593
vt 0.795245 0.850513
vt 0.559051 0.624057
vt 0.652772 0.592320
vt 0.847592 0.780942
vt 0.791867 0.194819
vt 0.903058 0.780942
vt 0.251336 0.733791
vt 0.791867 0.139352
vt 0.903058 0.690890
vt 0.251338 0.643738
vt 0.827813 0.791425
vt 0.565381 0.594520
vt 0.847592 0.690890
vt 0.827813 0.846892
vt 0.664636 0.661251
vt 0.865193 0.201199
vt 0.665850 0.636549
vt 0.843750 0.201199
vt 0.294813 0.744150
vt 0.843750 0.132972
vt 0.316256 0.744149
vt 0.865193 0.132972
vt 0.294811 0.633380
vt 0.775930 0.785044
vt 0.316254 0.633380
vt 0.751294 0.785040
vt 0.554928 0.639950
vt 0.775923 0.853272
vt 0.555739 0.661031
vt 0.751273 0.853267
vt 0.326359 0.747568
vt 0.876609 0.130866
vt 0.678560 0.716294
vt 0.667053 0.670938
vt 0.876609 0.203305
vt 0.751007 0.716294
vt 0.318363 0.747568
vt 0.868613 0.130866
vt 0.739879 0.782930
vt 0.326357 0.629961
vt 0.678561 0.598681
vt 0.318361 0.629961
vt 0.747875 0.782933
vt 0.553279 0.670938
vt 0.739857 0.855369
vt 0.751008 0.598682
vt 0.552854 0.663225
vt 0.747853 0.855372
vt 0.868613 0.203305
vt 0.667483 0.663335
vt 0.840330 0.130866
vt 0.292706 0.747569
vt 0.779350 0.782939
vt 0.292704 0.629961
vt 0.779276 0.854708
vt 0.548535 0.634263
vt 0.551876 0.638408
vt 0.555158 0.630385
vt 0.787346 0.852975
vt 0.551819 0.626929
vt 0.305535 0.744150
vt 0.854472 0.132972
vt 0.664792 0.634490
vt 0.840330 0.200526
vt 0.669416 0.633989
vt 0.666053 0.636397
vt 0.843518 0.201342
vt 0.666684 0.635152
vt 0.832334 0.200526
vt 0.669013 0.626254
vt 0.664025 0.625950
vt 0.829146 0.201341
vt 0.665089 0.624006
vt 0.666056 0.625193
vt 0.666128 0.644380
vt 0.851817 0.201199
vt 0.666983 0.652363
vt 0.666087 0.645681
vt 0.854472 0.193422
vt 0.857126 0.201199
vt 0.665069 0.653571
vt 0.647833 0.649266
vt 0.827893 0.133601
vt 0.283776 0.743128
vt 0.836174 0.130866
vt 0.832399 0.128889
vt 0.288550 0.747569
vt 0.832334 0.133604
vt 0.783506 0.782939
vt 0.787286 0.780962
vt 0.288548 0.629961
vt 0.791788 0.785675
vt 0.283778 0.634403
vt 0.787346 0.785677
vt 0.304587 0.633380
vt 0.766154 0.785044
vt 0.761070 0.785043
vt 0.306478 0.633380
vt 0.305533 0.646503
vt 0.555344 0.651544
vt 0.761049 0.853270
vt 0.766147 0.853271
vt 0.555199 0.649477
vt 0.566397 0.650351
vt 0.763739 0.853259
vt 0.557358 0.650138
vt 0.763731 0.785032
vt 0.305213 0.635721
s 1
usemtl Material.003
f 35/75/1 39/81/1 23/45/1
f 41/84/2 18/35/3 39/81/4
f 18/35/3 23/45/5 39/81/4
f 51/106/6 42/87/7 49/101/8
f 49/101/8 42/87/7 10/15/9
f 42/87/7 44/90/10 10/15/9
f 9/13/10 10/15/9 44/90/10
f 17/34/11 20/40/11 27/56/11 32/67/11
f 7/10/12 3/4/12 25/51/12 28/59/12
f 3/4/13 7/10/13 5/7/13 1/1/13
f 2/2/14 6/8/14 16/30/14 13/21/14
f 2/3/15 4/6/15 10/15/15 9/13/15
f 4/5/15 8/11/15 11/18/15 10/16/15
f 8/12/15 6/9/15 12/19/15 11/17/15
f 6/8/15 2/2/15 9/14/15 12/20/15
f 15/27/15 14/24/15 13/22/15 16/31/15
f 8/11/16 4/5/16 14/25/16 15/28/16
f 6/9/17 8/12/17 15/29/17 16/32/17
f 4/6/18 2/3/18 13/23/18 14/26/18
f 21/41/19 19/37/19 33/70/19 34/72/19
f 45/93/20 46/95/20 48/100/20
f 38/79/14 19/37/14 57/117/21
f 21/41/14 55/113/14 19/37/14
f 19/37/14 55/113/14 57/117/21
f 20/39/22 22/43/22 29/60/22 27/55/22
f 24/47/16 58/118/23 17/33/16
f 58/118/23 60/122/24 17/33/16
f 47/99/16 17/33/16 48/100/16
f 60/122/24 48/100/16 17/33/16
f 1/1/25 5/7/25 30/64/25 26/54/25
f 23/45/16 18/35/16 59/121/16
f 59/121/16 18/35/16 60/122/24
f 45/93/16 48/100/16 18/35/16
f 60/122/24 18/35/16 48/100/16
f 35/73/26 34/71/27 37/77/28
f 34/71/27 52/107/18 37/77/28
f 52/107/18 54/112/18 37/77/28
f 40/82/17 42/87/17 33/69/17
f 33/69/17 42/87/17 50/103/17
f 42/87/17 51/106/17 50/103/17
f 37/77/29 54/112/30 12/19/31
f 54/112/30 53/110/32 12/19/31
f 11/17/33 12/19/31 53/110/32
f 30/62/16 31/65/16 32/68/16 26/52/16
f 28/57/18 29/61/18 31/66/18 30/63/18
f 25/49/14 27/55/14 29/60/14 28/58/14
f 26/53/17 32/67/17 27/56/17 25/50/17
f 24/47/34 17/33/34 32/68/34 31/65/34
f 5/7/35 7/10/35 28/59/35 30/64/35
f 3/4/36 1/1/36 26/54/36 25/51/36
f 10/16/37 11/18/37 53/111/37 49/102/37
f 33/69/38 19/38/38 40/82/38
f 19/38/38 18/36/38 40/82/38
f 18/36/38 41/85/39 40/82/38
f 22/44/40 24/48/40 31/66/40 29/61/40
f 36/76/41 12/20/42 43/89/43
f 44/91/43 43/89/43 9/14/43
f 12/20/42 9/14/43 43/89/43
f 23/46/44 21/42/44 34/71/44 35/73/44
f 36/76/45 35/74/45 37/78/45 12/20/45
f 55/114/18 21/42/18 23/46/18 59/120/18
f 20/39/14 38/79/14 22/43/14
f 56/116/46 22/43/14 57/117/21
f 38/79/14 57/117/21 22/43/14
f 17/34/17 47/98/17 20/40/17
f 47/98/17 46/97/17 20/40/17
f 46/97/17 38/80/17 20/40/17
f 39/81/47 40/83/47 41/86/47
f 42/88/48 43/89/48 44/92/48
f 39/81/49 43/89/49 42/88/49 40/83/49
f 35/75/50 36/76/50 43/89/50 39/81/50
f 46/96/51 47/99/51 48/100/51
f 18/36/17 19/38/17 45/94/17
f 45/94/17 19/38/17 46/97/17
f 46/97/17 19/38/17 38/80/17
f 49/101/52 50/104/53 51/106/54
f 52/108/55 53/110/56 54/112/57
f 49/102/52 53/111/56 52/109/55 50/105/53
f 33/70/14 50/105/14 52/109/14 34/72/14
f 55/113/58 62/126/58 57/117/58
f 58/118/23 61/124/59 60/122/24
f 55/114/60 59/120/60 61/123/60 62/125/60
f 22/44/18 56/115/18 58/119/18 24/48/18
f 62/125/61 61/123/61 58/119/61 56/115/61
f 57/117/21 62/126/62 56/116/46
f 60/122/63 61/124/63 59/121/63
