# Blender 3.3.1
# www.blender.org
mtllib misc04.mtl
o misc04
v 0.197490 0.009624 -0.026128
v 0.190872 0.009624 -0.029949
v 0.193532 0.008872 0.086175
v 0.188649 0.023634 0.086175
v 0.193532 0.008872 0.076808
v 0.188649 0.023634 0.076808
v 0.193984 0.009022 0.086175
v 0.189102 0.023784 0.086175
v 0.193984 0.009022 0.076808
v 0.189102 0.023784 0.076808
v 0.193537 0.007714 0.076145
v 0.193537 0.007714 0.086838
v 0.194671 0.008090 0.076145
v 0.194671 0.008090 0.086838
v 0.193191 0.008759 0.076808
v 0.193191 0.008759 0.086175
v 0.188309 0.023521 0.086175
v 0.188309 0.023521 0.076808
v 0.189443 0.023897 0.076808
v 0.189443 0.023897 0.086175
v 0.189213 0.024592 0.086838
v 0.189115 0.025039 0.076553
v 0.189321 0.024358 0.076510
v 0.189371 0.024262 0.076074
v 0.188657 0.024896 0.076073
v 0.194208 0.009096 0.076808
v 0.194481 0.008664 0.076510
v 0.194287 0.009252 0.076808
v 0.194336 0.008852 0.076734
v 0.194481 0.008664 0.086474
v 0.194208 0.009096 0.086175
v 0.194287 0.009252 0.086175
v 0.194336 0.008852 0.086250
v 0.187902 0.024566 0.076145
v 0.187902 0.024566 0.086838
v 0.189097 0.024941 0.086166
v 0.182273 0.008872 0.086175
v 0.187155 0.023634 0.086175
v 0.182273 0.008872 0.076808
v 0.187155 0.023634 0.076808
v 0.181821 0.009022 0.086175
v 0.186703 0.023784 0.086175
v 0.181821 0.009022 0.076808
v 0.186703 0.023784 0.076808
v 0.182268 0.007714 0.076145
v 0.182268 0.007714 0.086838
v 0.181134 0.008090 0.076145
v 0.181134 0.008090 0.086838
v 0.182614 0.008759 0.076808
v 0.182614 0.008759 0.086175
v 0.187496 0.023521 0.086175
v 0.187496 0.023521 0.076808
v 0.186362 0.023897 0.076808
v 0.186592 0.024591 0.076863
v 0.187387 0.024728 0.076145
v 0.186596 0.024604 0.076145
v 0.187046 0.024835 0.086838
v 0.186510 0.024345 0.086460
v 0.186398 0.024007 0.086838
v 0.181788 0.009003 0.076801
v 0.181585 0.009626 0.076793
v 0.181258 0.008639 0.076504
v 0.181409 0.009094 0.077353
v 0.181420 0.008955 0.086289
v 0.181588 0.009099 0.086175
v 0.181478 0.009134 0.086061
v 0.186470 0.023861 0.086175
v 0.186421 0.024077 0.086289
v 0.186362 0.023897 0.086061
v 0.187902 0.024566 0.076145
v 0.187902 0.024566 0.086838
vn -0.9494 -0.3140 -0.0000
vn -0.0000 -0.0000 -1.0000
vn 0.9494 0.3140 -0.0000
vn -0.0133 0.6878 -0.7258
vn 0.3140 -0.9494 -0.0000
vn -0.3139 0.9494 -0.0000
vn 0.9494 0.3140 -0.0001
vn 0.3138 -0.9495 -0.0000
vn 0.9502 0.3116 0.0052
vn 0.9501 0.3118 0.0039
vn -0.3140 0.9494 -0.0000
vn -0.9494 -0.3142 -0.0000
vn -0.9480 -0.3154 -0.0432
vn -0.9320 -0.3624 -0.0000
vn -0.9480 -0.3154 0.0432
vn 0.9503 0.3114 0.0049
vn 0.9502 0.3115 0.0053
vn 0.9490 0.3127 0.0404
vn 0.9450 0.3125 0.0969
vn -0.0000 -0.0000 1.0000
vn 0.3141 -0.9494 -0.0000
vn 0.4467 0.1555 0.8811
vn -0.0806 -0.0331 -0.9962
vn -0.0031 -0.0054 -1.0000
vn 0.7216 0.5194 -0.4578
vn -0.2996 0.9541 -0.0000
vn -0.3990 0.9169 0.0132
vn -0.3083 0.9513 0.0091
vn 0.2818 -0.1418 0.9489
vn 0.8407 0.0031 0.5414
vn 0.8415 0.0035 -0.5402
vn 0.2819 -0.1418 -0.9489
vn 0.7921 0.6104 -0.0000
vn 0.8858 0.4640 -0.0000
vn -0.0001 -0.0000 1.0000
vn 0.9494 0.3142 -0.0000
vn 0.9573 0.2891 0.0047
vn 0.9657 0.2597 0.0067
vn 0.9494 -0.3140 -0.0000
vn -0.9494 0.3140 -0.0000
vn -0.9753 0.2209 -0.0000
vn -0.9519 0.3064 0.0048
vn -0.9506 0.3104 0.0048
vn -0.9493 0.3143 0.0057
vn -0.9483 0.3174 0.0061
vn -0.9494 0.3141 -0.0000
vn -0.3140 -0.9494 -0.0000
vn 0.3142 0.9494 -0.0000
vn -0.9495 0.3138 0.0002
vn -0.9495 0.3137 -0.0002
vn -0.9495 0.3138 -0.0001
vn -0.9495 0.3139 -0.0000
vn -0.3136 -0.9496 -0.0000
vn -0.3138 -0.9495 -0.0000
vn -0.3139 -0.9495 -0.0000
vn -0.9387 0.3105 -0.1498
vn -0.9484 0.3168 -0.0107
vn -0.9483 0.3173 0.0039
vn -0.9483 0.3174 0.0041
vn 0.9494 -0.3139 -0.0000
vn 0.9480 -0.3154 -0.0434
vn 0.9320 -0.3624 -0.0000
vn 0.9480 -0.3154 0.0434
vn 0.0001 -0.0000 1.0000
vn -0.1545 0.9878 0.0169
vn -0.7502 0.5872 0.3039
vn -0.4261 0.9046 -0.0027
vn 0.2995 0.9541 -0.0000
vn -0.4193 -0.1246 0.8993
vn -0.1767 -0.0443 0.9833
vn -0.0350 0.0116 0.9993
vn -0.0003 -0.0010 1.0000
vn -0.3081 0.7848 0.5377
vn -0.7149 -0.4462 0.5384
vn -0.6713 0.2220 -0.7071
vn 0.3138 0.9495 -0.0000
vn 0.3086 0.9512 -0.0001
vn 0.3078 0.9515 -0.0002
vn -0.4875 0.8726 -0.0286
vn 0.2254 0.9742 -0.0062
vn -0.3631 0.8464 -0.3895
vt 0.242048 0.776912
vt 0.960899 0.482089
vt 0.951993 0.016391
vt 0.351618 0.776912
vt 0.960910 0.591659
vt 0.815300 0.551537
vt 0.242048 0.842920
vt 0.951993 0.082398
vt 0.970186 0.934152
vt 0.351618 0.842920
vt 0.815301 0.485530
vt 0.970189 0.824582
vt 0.622835 0.789910
vt 0.987589 0.819237
vt 0.923749 0.016391
vt 0.732405 0.789910
vt 0.329350 0.929301
vt 0.987578 0.928807
vt 0.622835 0.723903
vt 0.923749 0.082398
vt 0.959571 0.090006
vt 0.732405 0.723903
vt 0.395358 0.929291
vt 0.959041 0.199396
vt 0.941706 0.087070
vt 0.977390 0.941907
vt 0.949754 0.469415
vt 0.941706 0.011719
vt 0.968102 0.474333
vt 0.951656 0.686344
vt 0.933286 0.087070
vt 0.966754 0.082091
vt 0.958174 0.469444
vt 0.975766 0.144382
vt 0.988232 0.683890
vt 0.933286 0.011719
vt 0.943236 0.686299
vt 0.949461 0.082398
vt 0.972718 0.934152
vt 0.949461 0.016391
vt 0.963431 0.482089
vt 0.963442 0.591659
vt 0.812769 0.551537
vt 0.812769 0.485530
vt 0.972721 0.824582
vt 0.395359 0.931823
vt 0.961582 0.199464
vt 0.422225 0.644393
vt 0.939191 0.568951
vt 0.329351 0.931832
vt 0.985046 0.928807
vt 0.921892 0.100782
vt 0.422821 0.710398
vt 0.943890 0.563818
vt 0.371486 0.016171
vt 0.334442 0.918176
vt 0.430588 0.642519
vt 0.963693 0.202898
vt 0.366630 0.014874
vt 0.425569 0.642256
vt 0.966783 0.202218
vt 0.985046 0.803775
vt 0.366500 0.011719
vt 0.975759 0.270168
vt 0.988281 0.809677
vt 0.373231 0.011719
vt 0.251942 0.255893
vt 0.331208 0.921699
vt 0.925411 0.082398
vt 0.961237 0.090051
vt 0.964162 0.086290
vt 0.929027 0.084504
vt 0.962088 0.091046
vt 0.962323 0.088045
vt 0.927354 0.082922
vt 0.940693 0.682026
vt 0.929026 0.014285
vt 0.985926 0.819237
vt 0.925411 0.016391
vt 0.938610 0.677650
vt 0.985057 0.820106
vt 0.938954 0.680518
vt 0.985550 0.817260
vt 0.927354 0.015866
vt 0.804870 0.480858
vt 0.977409 0.816693
vt 0.949773 0.344200
vt 0.981571 0.269772
vt 0.243444 0.677330
vt 0.251677 0.261713
vt 0.938609 0.556238
vt 0.968131 0.599548
vt 0.804869 0.556209
vt 0.952730 0.561134
vt 0.934617 0.100779
vt 0.243444 0.752681
vt 0.926674 0.094677
vt 0.234618 0.747945
vt 0.180751 0.255899
vt 0.331229 0.850507
vt 0.430576 0.710264
vt 0.790009 0.011719
vt 0.966495 0.458289
vt 0.381361 0.339184
vt 0.790009 0.121289
vt 0.966471 0.348719
vt 0.022150 0.784094
vt 0.856017 0.011719
vt 0.381360 0.405487
vt 0.972044 0.609087
vt 0.856017 0.121289
vt 0.022150 0.850101
vt 0.972044 0.718657
vt 0.480803 0.748042
vt 0.936752 0.150085
vt 0.410504 0.339826
vt 0.480803 0.857612
vt 0.915454 0.925985
vt 0.944538 0.259378
vt 0.414795 0.748042
vt 0.959041 0.325436
vt 0.410103 0.404953
vt 0.414795 0.857612
vt 0.849449 0.926411
vt 0.959160 0.215832
vt 0.391659 0.410059
vt 0.979247 0.601332
vt 0.983649 0.409936
vt 0.955326 0.693952
vt 0.391696 0.334366
vt 0.973701 0.466042
vt 0.975816 0.136933
vt 0.981370 0.403028
vt 0.951314 0.141273
vt 0.400067 0.409962
vt 0.966445 0.333257
vt 0.963746 0.693962
vt 0.400179 0.334261
vt 0.942916 0.141871
vt 0.383898 0.405457
vt 0.974576 0.609087
vt 0.383901 0.339154
vt 0.969027 0.458288
vt 0.969003 0.348718
vt 0.019618 0.784094
vt 0.019618 0.850101
vt 0.974576 0.718657
vt 0.849466 0.928943
vt 0.944182 0.544980
vt 0.961711 0.215816
vt 0.949344 0.544691
vt 0.323827 0.082033
vt 0.985138 0.535129
vt 0.958590 0.819113
vt 0.329533 0.087070
vt 0.949344 0.549751
vt 0.966419 0.210492
vt 0.963612 0.816539
vt 0.323890 0.087092
vt 0.982081 0.011832
vt 0.981331 0.277770
vt 0.327023 0.011719
vt 0.948832 0.262412
vt 0.948803 0.477041
vt 0.985843 0.281363
vt 0.321921 0.014407
vt 0.951311 0.259716
vt 0.984163 0.284617
vt 0.959333 0.325636
vt 0.409838 0.405008
vt 0.961903 0.321587
vt 0.963874 0.329318
vt 0.404026 0.407376
vt 0.407210 0.400792
vt 0.406751 0.339008
vt 0.939514 0.148549
vt 0.938474 0.149962
vt 0.408773 0.339844
vt 0.407977 0.340754
vt 0.915465 0.927712
vt 0.945100 0.478696
vt 0.946260 0.259255
vt 0.946784 0.478205
vt 0.947490 0.260506
vt 0.914665 0.928522
vt 0.945418 0.479788
vt 0.011719 0.854773
vt 0.979264 0.726547
vt 0.981331 0.535129
vt 0.333340 0.087071
vt 0.973690 0.340827
vt 0.011719 0.779422
vt 0.975759 0.011719
vt 0.333346 0.011719
s 1
usemtl Material.003
f 3/1/1 4/4/1 6/10/1 5/7/1
f 4/5/2 3/2/2 16/41/2 17/42/2
f 9/19/3 10/22/3 8/16/3 7/13/3
f 21/54/4 20/49/4 35/91/4
f 11/25/5 13/31/5 14/36/5 12/28/5
f 3/3/6 5/8/6 15/38/6 16/40/6
f 14/37/3 30/76/3 21/54/7
f 30/76/3 32/80/7 21/54/7
f 32/80/7 20/49/7 21/54/7
f 8/17/8 10/23/8 19/46/8 20/50/8
f 7/14/2 8/18/2 31/78/2
f 31/78/2 8/18/2 32/81/2
f 8/18/2 20/51/2 32/81/2
f 27/72/9 30/77/3 14/36/3 13/31/10
f 9/20/11 7/15/11 31/79/11 26/69/11
f 16/40/12 15/38/12 11/25/12 12/28/12
f 17/42/13 16/41/13 12/29/13 35/92/13
f 18/44/14 17/43/14 35/93/14 34/85/14
f 15/39/15 18/45/15 34/86/15 11/26/15
f 13/32/10 24/61/16 27/71/9
f 27/71/9 24/61/16 28/73/17
f 24/61/18 23/58/18 28/73/18
f 19/47/19 28/73/19 23/58/19
f 12/30/20 14/37/20 21/54/20 35/94/20
f 6/11/21 4/6/21 17/43/21 18/44/21
f 5/9/20 6/12/20 18/45/20 15/39/20
f 20/52/22 36/97/22 35/95/22
f 11/27/2 34/87/2 13/33/2
f 34/88/23 25/64/23 13/34/23
f 25/65/24 24/62/24 13/35/24
f 22/55/25 23/59/25 24/63/25 25/66/25
f 35/96/26 36/98/26 34/89/26
f 34/90/27 36/99/27 25/67/27
f 22/56/28 25/68/28 36/100/28
f 26/70/29 29/74/29 28/73/29
f 29/74/30 27/71/30 28/73/30
f 30/76/31 33/82/31 32/80/31
f 33/83/32 31/78/32 32/81/32
f 30/77/33 27/72/33 29/75/33 33/84/33
f 33/84/34 29/75/34 26/69/34 31/79/34
f 10/24/20 9/21/20 19/47/20
f 9/21/20 26/70/20 19/47/20
f 26/70/20 28/73/35 19/47/20
f 20/53/36 19/48/36 36/101/36
f 22/57/37 36/101/37 23/60/37
f 36/101/38 19/48/38 23/60/38
f 37/102/39 39/108/39 40/111/39 38/105/39
f 38/106/2 51/144/2 50/143/2 37/103/2
f 43/120/40 41/114/40 42/117/40 44/123/40
f 47/135/41 48/138/41 62/173/41
f 62/173/42 48/138/43 63/174/44
f 63/174/44 48/138/43 66/179/45
f 48/138/43 64/175/46 66/179/45
f 46/130/47 48/138/47 47/135/47 45/126/47
f 37/104/48 50/142/48 49/140/48 39/109/48
f 48/139/43 59/167/49 64/176/46
f 58/163/50 68/184/51 59/167/49
f 64/176/46 59/167/49 68/184/51
f 58/164/50 54/151/40 68/183/51
f 68/183/51 54/151/40 69/186/52
f 69/186/52 54/151/40 53/149/40
f 42/118/53 67/180/54 44/124/54
f 67/180/54 69/185/55 44/124/54
f 69/185/55 53/148/54 44/124/54
f 47/136/56 62/172/56 56/157/56
f 62/172/57 61/171/57 56/157/57
f 54/151/40 56/156/58 53/149/40
f 53/150/40 56/157/58 61/171/59
f 41/115/2 65/177/2 67/182/2 42/119/2
f 50/142/60 46/130/60 45/126/60 49/140/60
f 51/144/61 71/191/61 46/131/61 50/143/61
f 52/146/62 70/187/62 71/192/62 51/145/62
f 49/141/63 45/127/63 70/188/63 52/147/63
f 71/193/20 57/160/20 46/132/20
f 57/161/20 59/168/64 46/133/20
f 59/167/64 48/139/20 46/134/20
f 47/137/2 56/158/2 45/129/2
f 70/189/2 45/128/2 55/153/2
f 45/129/2 56/158/2 55/154/2
f 40/112/54 52/146/54 51/145/54 38/107/54
f 39/110/20 49/141/20 52/147/20 40/113/20
f 54/152/65 55/155/65 56/159/65
f 57/161/66 58/165/66 59/168/66
f 54/152/67 58/166/67 57/162/67 55/155/67
f 55/155/68 57/162/68 71/194/68 70/190/68
f 60/169/69 61/171/69 62/172/69
f 60/169/70 43/121/70 61/171/70
f 43/121/71 44/125/71 61/171/71
f 44/125/72 53/150/72 61/171/72
f 64/175/73 65/178/73 66/179/73
f 67/181/74 68/183/74 69/186/74
f 67/182/75 65/177/75 64/176/75 68/184/75
f 41/116/76 43/122/77 65/178/77
f 65/178/77 43/122/77 66/179/78
f 43/122/79 60/170/79 66/179/79
f 60/170/80 63/174/80 66/179/80
f 63/174/81 60/170/81 62/173/81
