# Blender 3.3.1
# www.blender.org
mtllib misc023.mtl
o misc023
v 0.194401 0.028123 -0.063747
v 0.194401 0.023832 -0.062884
v 0.193915 0.028123 -0.063949
v 0.193305 0.023832 -0.063338
v 0.193714 0.028123 -0.064435
v 0.192851 0.023832 -0.064435
v 0.193915 0.028123 -0.064920
v 0.193305 0.023832 -0.065531
v 0.194401 0.028123 -0.065122
v 0.194401 0.023832 -0.065985
v 0.194887 0.028123 -0.064920
v 0.195497 0.023832 -0.065531
v 0.195088 0.028123 -0.064435
v 0.195951 0.023832 -0.064435
v 0.194887 0.028123 -0.063949
v 0.195497 0.023832 -0.063338
v 0.194401 0.025895 -0.062465
v 0.193008 0.025895 -0.063042
v 0.192432 0.025895 -0.064435
v 0.193008 0.025895 -0.065827
v 0.194401 0.025895 -0.066404
v 0.195794 0.025895 -0.065827
v 0.196370 0.025895 -0.064435
v 0.195794 0.025895 -0.063042
v 0.193915 0.027125 -0.063949
v 0.193714 0.027125 -0.064435
v 0.193915 0.027125 -0.064920
v 0.194401 0.027125 -0.065122
v 0.194887 0.027125 -0.064920
v 0.195088 0.027125 -0.064435
v 0.194887 0.027125 -0.063949
v 0.194401 0.027125 -0.063747
v 0.194401 0.028123 -0.063535
v 0.193765 0.028123 -0.063799
v 0.193501 0.028123 -0.064435
v 0.193765 0.028123 -0.065071
v 0.194401 0.028123 -0.065334
v 0.195037 0.028123 -0.065071
v 0.195300 0.028123 -0.064435
v 0.195037 0.028123 -0.063799
v 0.194401 0.028449 -0.063845
v 0.193984 0.028449 -0.064018
v 0.193812 0.028449 -0.064435
v 0.193984 0.028449 -0.064851
v 0.194401 0.028449 -0.065024
v 0.194818 0.028449 -0.064851
v 0.194990 0.028449 -0.064435
v 0.194818 0.028449 -0.064018
v 0.194401 0.024864 -0.063256
v 0.193568 0.024864 -0.063601
v 0.193223 0.024864 -0.064435
v 0.193568 0.024864 -0.065268
v 0.194401 0.024864 -0.065613
v 0.195234 0.024864 -0.065268
v 0.195579 0.024864 -0.064435
v 0.195234 0.024864 -0.063601
v 0.194401 0.028449 -0.063535
v 0.193765 0.028449 -0.063799
v 0.193501 0.028449 -0.064435
v 0.193765 0.028449 -0.065071
v 0.194401 0.028449 -0.065334
v 0.195037 0.028449 -0.065071
v 0.195300 0.028449 -0.064435
v 0.195037 0.028449 -0.063799
v 0.194401 0.029076 -0.063845
v 0.193984 0.029076 -0.064018
v 0.193812 0.029076 -0.064435
v 0.193984 0.029076 -0.064851
v 0.194401 0.029076 -0.065024
v 0.194818 0.029076 -0.064851
v 0.194990 0.029076 -0.064435
v 0.194818 0.029076 -0.064018
v 0.194401 0.024345 -0.062860
v 0.193288 0.024345 -0.063322
v 0.192827 0.024345 -0.064435
v 0.193288 0.024345 -0.065548
v 0.194401 0.024345 -0.066009
v 0.195514 0.024345 -0.065548
v 0.195975 0.024345 -0.064435
v 0.195514 0.024345 -0.063322
vn -0.3825 -0.0424 0.9230
vn -0.9231 -0.0424 0.3823
vn -0.9231 -0.0427 -0.3822
vn -0.3822 -0.0430 -0.9231
vn 0.3823 -0.0431 -0.9230
vn 0.9231 -0.0427 -0.3822
vn -0.0000 -1.0000 -0.0000
vn 0.9231 -0.0424 0.3823
vn 0.3825 -0.0426 0.9230
vn 0.2757 0.6937 0.6654
vn 0.6655 0.6937 0.2756
vn 0.6655 0.6937 -0.2756
vn 0.2757 0.6937 -0.6654
vn -0.2756 0.6937 -0.6654
vn -0.6654 0.6937 -0.2756
vn -0.6654 0.6937 0.2756
vn -0.2756 0.6937 0.6654
vn -0.3830 -0.0000 0.9238
vn -0.9238 -0.0000 0.3830
vn -0.9238 -0.0000 -0.3830
vn -0.3830 -0.0000 -0.9238
vn 0.3830 -0.0000 -0.9238
vn 0.9240 -0.0000 -0.3825
vn 0.9240 -0.0000 0.3825
vn 0.3830 -0.0000 0.9238
vn 0.9241 -0.0000 0.3822
vn 0.9239 -0.0000 -0.3826
vn 0.9239 -0.0000 0.3826
vn 0.3123 -0.5782 0.7537
vn 0.7538 -0.5782 0.3122
vn 0.7538 -0.5782 -0.3122
vn 0.3123 -0.5782 -0.7537
vn -0.3123 -0.5782 -0.7538
vn -0.7538 -0.5782 -0.3122
vn -0.7538 -0.5782 0.3122
vn -0.3123 -0.5782 0.7538
vn -0.0000 1.0000 -0.0000
vn 0.3828 -0.0000 -0.9238
vn -0.9238 -0.0000 -0.3828
vn -0.3828 -0.0000 0.9238
vn 0.3828 -0.0000 0.9238
vn 0.9241 -0.0000 -0.3822
vn -0.3828 -0.0000 -0.9238
vn -0.9238 -0.0000 0.3828
vn 0.3132 0.5755 0.7555
vn 0.7555 0.5756 0.3129
vn 0.7555 0.5757 -0.3128
vn 0.3129 0.5758 -0.7554
vn -0.3129 0.5757 -0.7554
vn -0.7555 0.5755 -0.3130
vn -0.7556 0.5754 0.3131
vn -0.3132 0.5754 0.7555
vt 0.148266 0.919578
vt 0.017632 0.293603
vt 0.157474 0.882948
vt 0.144063 0.919150
vt 0.148921 0.881545
vt 0.025993 0.293603
vt 0.139830 0.919113
vt 0.140271 0.881081
vt 0.031906 0.299516
vt 0.135620 0.919470
vt 0.131612 0.881580
vt 0.031906 0.307878
vt 0.131484 0.920224
vt 0.123044 0.883025
vt 0.025993 0.313791
vt 0.127479 0.921349
vt 0.114661 0.885323
vt 0.017632 0.313791
vt 0.156350 0.921096
vt 0.123703 0.922530
vt 0.106451 0.888219
vt 0.011719 0.307878
vt 0.173985 0.888316
vt 0.152376 0.920364
vt 0.011719 0.299516
vt 0.165850 0.885233
vt 0.153413 0.900041
vt 0.146600 0.898860
vt 0.139878 0.898530
vt 0.133139 0.898955
vt 0.126260 0.900158
vt 0.118872 0.902306
vt 0.169292 0.906419
vt 0.109960 0.905898
vt 0.160617 0.902399
vt 0.144346 0.911695
vt 0.139429 0.911648
vt 0.134544 0.912058
vt 0.129806 0.912927
vt 0.125384 0.914243
vt 0.121578 0.916018
vt 0.157679 0.914637
vt 0.153794 0.913091
vt 0.149185 0.912178
vt 0.148201 0.920954
vt 0.144094 0.920538
vt 0.139978 0.920499
vt 0.135886 0.920838
vt 0.131845 0.921562
vt 0.127834 0.922722
vt 0.123396 0.924271
vt 0.156855 0.922629
vt 0.152342 0.921742
vt 0.147721 0.925398
vt 0.347817 0.233351
vt 0.143999 0.925045
vt 0.345955 0.230775
vt 0.140271 0.925011
vt 0.344093 0.228198
vt 0.136561 0.925303
vt 0.342230 0.225621
vt 0.132895 0.925911
vt 0.340368 0.223045
vt 0.129307 0.926827
vt 0.338506 0.220468
vt 0.351541 0.238504
vt 0.126206 0.928290
vt 0.154805 0.927139
vt 0.336644 0.217892
vt 0.151406 0.926051
vt 0.349679 0.235928
vt 0.155646 0.891256
vt 0.147963 0.889975
vt 0.140199 0.889554
vt 0.132423 0.890012
vt 0.124711 0.891358
vt 0.117222 0.893555
vt 0.169889 0.895693
vt 0.110442 0.895896
vt 0.163118 0.893290
vt 0.147882 0.923304
vt 0.143961 0.922934
vt 0.140051 0.922906
vt 0.136164 0.923227
vt 0.132314 0.923898
vt 0.128440 0.924969
vt 0.124341 0.926772
vt 0.156469 0.925229
vt 0.151900 0.923998
vt 0.342962 0.238009
vt 0.344239 0.235937
vt 0.340386 0.239871
vt 0.342377 0.233361
vt 0.339881 0.243010
vt 0.340514 0.230784
vt 0.341743 0.245586
vt 0.338652 0.228208
vt 0.344882 0.246091
vt 0.336790 0.225631
vt 0.347458 0.244229
vt 0.334928 0.223054
vt 0.347963 0.241090
vt 0.333065 0.220478
vt 0.346101 0.238514
vt 0.156728 0.886660
vt 0.148559 0.885310
vt 0.140294 0.884860
vt 0.132016 0.885337
vt 0.123812 0.886728
vt 0.115772 0.888922
vt 0.172642 0.891936
vt 0.107619 0.891850
vt 0.164720 0.888855
s 1
usemtl Material.003
f 73/105/1 74/106/1 4/5/1 2/3/1
f 74/106/2 75/107/2 6/8/2 4/5/2
f 75/107/3 76/108/3 8/11/3 6/8/3
f 76/108/4 77/109/4 10/14/4 8/11/4
f 77/109/5 78/110/5 12/17/5 10/14/5
f 78/110/6 79/112/6 14/21/6 12/17/6
f 4/6/7 6/9/7 2/2/7
f 6/9/7 8/12/7 2/2/7
f 8/12/7 10/15/7 2/2/7
f 10/15/7 12/18/7 2/2/7
f 12/18/7 14/22/7 2/2/7
f 14/22/7 16/25/7 2/2/7
f 79/111/8 80/113/8 16/26/8 14/23/8
f 80/113/9 73/105/9 2/3/9 16/26/9
f 7/10/7 36/48/7 37/49/7 9/13/7
f 31/43/10 32/44/10 17/27/10 24/35/10
f 30/42/11 31/43/11 24/35/11 23/33/11
f 29/40/12 30/41/12 23/34/12 22/32/12
f 28/39/13 29/40/13 22/32/13 21/31/13
f 27/38/14 28/39/14 21/31/14 20/30/14
f 26/37/15 27/38/15 20/30/15 19/29/15
f 25/36/16 26/37/16 19/29/16 18/28/16
f 32/44/17 25/36/17 18/28/17 17/27/17
f 1/1/18 3/4/18 25/36/18 32/44/18
f 3/4/19 5/7/19 26/37/19 25/36/19
f 5/7/20 7/10/20 27/38/20 26/37/20
f 7/10/21 9/13/21 28/39/21 27/38/21
f 9/13/22 11/16/22 29/40/22 28/39/22
f 11/16/23 13/20/23 30/41/23 29/40/23
f 13/19/24 15/24/24 31/43/24 30/42/24
f 15/24/25 1/1/25 32/44/25 31/43/25
f 35/47/20 59/83/20 60/84/20 36/48/20
f 13/19/7 39/52/7 40/53/7 15/24/7
f 3/4/7 34/46/7 35/47/7 5/7/7
f 9/13/7 37/49/7 38/50/7 11/16/7
f 15/24/7 40/53/7 33/45/7 1/1/7
f 1/1/7 33/45/7 34/46/7 3/4/7
f 5/7/7 35/47/7 36/48/7 7/10/7
f 11/16/7 38/50/7 39/51/7 13/20/7
f 47/66/26 71/102/26 72/104/26 48/71/26
f 33/45/18 57/81/18 58/82/18 34/46/18
f 40/53/25 64/89/25 57/81/25 33/45/25
f 38/50/27 62/86/27 63/87/27 39/51/27
f 36/48/21 60/84/21 61/85/21 37/49/21
f 34/46/19 58/82/19 59/83/19 35/47/19
f 39/52/28 63/88/28 64/89/28 40/53/28
f 37/49/22 61/85/22 62/86/22 38/50/22
f 24/35/29 17/27/29 49/72/29 56/80/29
f 23/33/30 24/35/30 56/80/30 55/78/30
f 22/32/31 23/34/31 55/79/31 54/77/31
f 21/31/32 22/32/32 54/77/32 53/76/32
f 20/30/33 21/31/33 53/76/33 52/75/33
f 19/29/34 20/30/34 52/75/34 51/74/34
f 18/28/35 19/29/35 51/74/35 50/73/35
f 17/27/36 18/28/36 50/73/36 49/72/36
f 42/56/37 58/82/37 57/81/37 41/54/37
f 43/58/37 59/83/37 58/82/37 42/56/37
f 44/60/37 60/84/37 59/83/37 43/58/37
f 45/62/37 61/85/37 44/60/37
f 44/60/37 61/85/37 60/84/37
f 46/64/37 62/86/37 61/85/37 45/62/37
f 47/67/37 63/87/37 62/86/37 46/64/37
f 48/70/37 64/89/37 63/88/37 47/68/37
f 41/54/37 57/81/37 64/89/37 48/70/37
f 65/90/37 72/104/37 66/92/37
f 72/104/37 71/102/37 66/92/37
f 71/102/37 70/100/37 66/92/37
f 70/100/37 69/98/37 66/92/37
f 69/98/37 68/96/37 66/92/37
f 68/96/37 67/94/37 66/92/37
f 45/63/38 69/99/38 70/101/38 46/65/38
f 43/59/39 67/95/39 68/97/39 44/61/39
f 41/55/40 65/91/40 66/93/40 42/57/40
f 48/71/41 72/104/41 65/91/41 41/55/41
f 46/65/42 70/101/42 71/103/42 47/69/42
f 44/61/43 68/97/43 69/99/43 45/63/43
f 42/57/44 66/93/44 67/95/44 43/59/44
f 56/80/45 49/72/45 73/105/45 80/113/45
f 55/78/46 56/80/46 80/113/46 79/111/46
f 54/77/47 55/79/47 79/112/47 78/110/47
f 53/76/48 54/77/48 78/110/48 77/109/48
f 52/75/49 53/76/49 77/109/49 76/108/49
f 51/74/50 52/75/50 76/108/50 75/107/50
f 50/73/51 51/74/51 75/107/51 74/106/51
f 49/72/52 50/73/52 74/106/52 73/105/52
