# Blender 3.3.1
# www.blender.org
mtllib misc05.mtl
o misc05
v 0.190346 0.008353 0.056644
v 0.190346 0.017817 0.055493
v 0.194444 0.008353 0.059010
v 0.195441 0.017817 0.058435
v 0.194444 0.008353 0.063742
v 0.195441 0.017817 0.064318
v 0.190346 0.008353 0.066109
v 0.190346 0.017817 0.067260
v 0.186248 0.008353 0.063742
v 0.185250 0.017817 0.064318
v 0.186248 0.008353 0.059010
v 0.185250 0.017817 0.058435
v 0.190346 0.013085 0.056288
v 0.194752 0.013085 0.058832
v 0.194752 0.013085 0.063920
v 0.190346 0.013085 0.066464
v 0.185940 0.013085 0.063920
v 0.185940 0.013085 0.058832
v 0.190346 0.008655 0.057008
v 0.190346 0.017895 0.055959
v 0.194129 0.008655 0.059192
v 0.195037 0.017895 0.058668
v 0.194129 0.008655 0.063560
v 0.195037 0.017895 0.064085
v 0.190346 0.008655 0.065744
v 0.190346 0.017895 0.066793
v 0.186563 0.008655 0.063560
v 0.185655 0.017895 0.064085
v 0.186563 0.008655 0.059192
v 0.185655 0.017895 0.058668
v 0.190346 0.013143 0.056758
v 0.194346 0.013143 0.059067
v 0.194346 0.013143 0.063686
v 0.190346 0.013143 0.065995
v 0.186346 0.013143 0.063686
v 0.186346 0.013143 0.059067
v 0.195975 0.018224 0.058259
v 0.195412 0.019348 0.058581
v 0.194286 0.019348 0.059225
v 0.193723 0.018224 0.059547
v 0.194286 0.017101 0.059225
v 0.195412 0.017101 0.058581
v 0.190372 0.018224 0.054994
v 0.190369 0.019348 0.055643
v 0.190364 0.019348 0.056939
v 0.190361 0.018224 0.057588
v 0.190364 0.017101 0.056939
v 0.190369 0.017101 0.055643
v 0.184743 0.018224 0.058214
v 0.185303 0.019348 0.058540
v 0.186424 0.019348 0.059193
v 0.186984 0.018224 0.059520
v 0.186424 0.017101 0.059193
v 0.185303 0.017101 0.058540
v 0.184717 0.018224 0.064699
v 0.185280 0.019348 0.064377
v 0.186406 0.019348 0.063733
v 0.186969 0.018224 0.063411
v 0.186406 0.017101 0.063733
v 0.185280 0.017101 0.064377
v 0.190320 0.018224 0.067964
v 0.190322 0.019348 0.067315
v 0.190328 0.019348 0.066018
v 0.190330 0.018224 0.065370
v 0.190328 0.017101 0.066018
v 0.190322 0.017101 0.067315
v 0.195949 0.018224 0.064744
v 0.195389 0.019348 0.064417
v 0.194268 0.019348 0.063764
v 0.193708 0.018224 0.063438
v 0.194268 0.017101 0.063764
v 0.195389 0.017101 0.064417
vn 0.4948 -0.1440 -0.8570
vn 0.9896 -0.1441 -0.0000
vn 0.4948 -0.1441 0.8570
vn -0.4948 -0.1441 0.8570
vn -0.9896 -0.1441 -0.0000
vn -0.4948 -0.1440 -0.8570
vn -0.0000 -1.0000 -0.0000
vn -0.4990 -0.0650 -0.8642
vn -0.9979 -0.0650 -0.0000
vn -0.4990 -0.0650 0.8642
vn 0.4990 -0.0649 0.8642
vn 0.9979 -0.0649 -0.0000
vn 0.4990 -0.0650 -0.8642
vn -0.4948 0.1440 0.8570
vn -0.9896 0.1440 -0.0000
vn -0.4948 0.1440 -0.8570
vn 0.4948 0.1440 -0.8570
vn 0.9896 0.1440 -0.0000
vn 0.4948 0.1440 0.8570
vn -0.0000 1.0000 -0.0000
vn 0.4994 0.0482 0.8650
vn 0.9988 0.0483 -0.0000
vn 0.4994 0.0482 -0.8650
vn -0.4994 0.0482 -0.8650
vn -0.9988 0.0483 -0.0000
vn -0.4994 0.0482 0.8650
vn 0.0954 0.9816 -0.1652
vn 0.1907 0.9816 -0.0000
vn 0.0954 0.9816 0.1652
vn -0.0954 0.9816 0.1652
vn -0.1906 0.9817 -0.0000
vn -0.0954 0.9816 -0.1652
vn 0.4502 0.4474 -0.7727
vn -0.4503 0.4472 0.7728
vn -0.4503 -0.4472 0.7728
vn 0.4502 -0.4474 -0.7727
vn -0.4441 0.4471 -0.7764
vn 0.4441 0.4473 0.7763
vn 0.4441 -0.4473 0.7763
vn -0.4441 -0.4471 -0.7764
vn -0.8944 0.4472 -0.0036
vn 0.8944 0.4473 0.0036
vn 0.8944 -0.4473 0.0036
vn -0.8944 -0.4472 -0.0036
vn -0.4504 0.4470 0.7729
vn 0.4503 0.4473 -0.7728
vn 0.4503 -0.4473 -0.7728
vn -0.4504 -0.4470 0.7729
vn 0.4441 0.4472 0.7764
vn -0.4442 0.4471 -0.7764
vn -0.4442 -0.4471 -0.7764
vn 0.4441 -0.4472 0.7764
vt 0.531817 0.912762
vt 0.588720 0.530042
vt 0.589256 0.464663
vt 0.531817 0.879414
vt 0.303359 0.012574
vt 0.624878 0.529491
vt 0.314438 0.078354
vt 0.628091 0.457735
vt 0.427798 0.357241
vt 0.560697 0.862741
vt 0.270288 0.015858
vt 0.273711 0.083266
vt 0.442220 0.396558
vt 0.589577 0.879414
vt 0.237407 0.015633
vt 0.232817 0.082989
vt 0.471099 0.430915
vt 0.589577 0.912762
vt 0.516219 0.528134
vt 0.204635 0.011719
vt 0.191896 0.077225
vt 0.509551 0.456312
vt 0.560697 0.929435
vt 0.551400 0.529145
vt 0.550661 0.463392
vt 0.589256 0.496798
vt 0.307615 0.045586
vt 0.627311 0.494660
vt 0.271703 0.049460
vt 0.235354 0.049087
vt 0.513725 0.493620
vt 0.199576 0.044382
vt 0.550740 0.495802
vt 0.882884 0.902990
vt 0.586990 0.397829
vt 0.588956 0.461912
vt 0.909540 0.918380
vt 0.488062 0.331868
vt 0.615460 0.393857
vt 0.625956 0.455069
vt 0.431166 0.358171
vt 0.936196 0.902990
vt 0.500919 0.358206
vt 0.444949 0.395291
vt 0.936196 0.872210
vt 0.516552 0.378408
vt 0.473123 0.428703
vt 0.909540 0.856820
vt 0.536723 0.391792
vt 0.510516 0.453171
vt 0.882884 0.872210
vt 0.560585 0.397695
vt 0.550865 0.460654
vt 0.586997 0.428879
vt 0.461179 0.347263
vt 0.618496 0.423920
vt 0.474828 0.377365
vt 0.495680 0.402658
vt 0.523361 0.420509
vt 0.554731 0.428196
vt 0.654918 0.234361
vt 0.650636 0.011719
vt 0.665089 0.231474
vt 0.660693 0.014634
vt 0.673721 0.225362
vt 0.669099 0.020265
vt 0.682862 0.221473
vt 0.678072 0.023391
vt 0.691871 0.223238
vt 0.636716 0.226019
vt 0.687356 0.020784
vt 0.632122 0.020471
vt 0.644944 0.231539
vt 0.640557 0.014522
vt 0.654690 0.192401
vt 0.663669 0.191893
vt 0.671761 0.191466
vt 0.681257 0.190660
vt 0.690518 0.190476
vt 0.637945 0.191975
vt 0.645787 0.192563
vt 0.654088 0.157230
vt 0.663284 0.156977
vt 0.671270 0.157121
vt 0.680508 0.156904
vt 0.689764 0.156770
vt 0.636896 0.157297
vt 0.644888 0.157477
vt 0.653340 0.122835
vt 0.662575 0.122601
vt 0.670584 0.122814
vt 0.679814 0.122720
vt 0.689069 0.122643
vt 0.636082 0.122932
vt 0.644105 0.123094
vt 0.652685 0.088471
vt 0.661884 0.088251
vt 0.669853 0.088501
vt 0.679062 0.088499
vt 0.688317 0.088478
vt 0.635448 0.088614
vt 0.643475 0.088739
vt 0.652019 0.053417
vt 0.660933 0.053327
vt 0.668791 0.054024
vt 0.678167 0.054624
vt 0.687647 0.054702
vt 0.634877 0.054214
vt 0.643010 0.053867
s 1
usemtl Material.003
f 13/26/1 2/3/1 4/8/1 14/28/1
f 14/27/2 4/7/2 6/12/2 15/29/2
f 15/29/3 6/12/3 8/16/3 16/30/3
f 16/30/4 8/16/4 10/21/4 17/32/4
f 17/31/5 10/22/5 12/25/5 18/33/5
f 18/33/6 12/25/6 2/3/6 13/26/6
f 1/1/7 3/4/7 11/23/7
f 3/4/7 5/10/7 11/23/7
f 5/10/7 7/14/7 11/23/7
f 7/14/7 9/18/7 11/23/7
f 11/24/8 18/33/8 13/26/8 1/2/8
f 9/19/9 17/31/9 18/33/9 11/24/9
f 7/15/10 16/30/10 17/32/10 9/20/10
f 5/11/11 15/29/11 16/30/11 7/15/11
f 3/5/12 14/27/12 15/29/12 5/11/12
f 1/2/13 13/26/13 14/28/13 3/6/13
f 31/54/14 32/56/14 22/40/14 20/36/14
f 32/55/15 33/57/15 24/44/15 22/41/15
f 33/57/16 34/58/16 26/47/16 24/44/16
f 34/58/17 35/59/17 28/50/17 26/47/17
f 35/59/18 36/60/18 30/53/18 28/50/18
f 36/60/19 31/54/19 20/36/19 30/53/19
f 19/34/20 29/51/20 21/37/20
f 29/51/20 27/48/20 21/37/20
f 27/48/20 25/45/20 21/37/20
f 25/45/20 23/42/20 21/37/20
f 29/52/21 19/35/21 31/54/21 36/60/21
f 27/49/22 29/52/22 36/60/22 35/59/22
f 25/46/23 27/49/23 35/59/23 34/58/23
f 23/43/24 25/46/24 34/58/24 33/57/24
f 21/38/25 23/43/25 33/57/25 32/55/25
f 19/35/26 21/39/26 32/56/26 31/54/26
f 4/8/27 2/3/27 20/36/27 22/40/27
f 6/13/28 4/9/28 22/41/28 24/44/28
f 8/17/29 6/13/29 24/44/29 26/47/29
f 10/22/30 8/17/30 26/47/30 28/50/30
f 12/25/31 10/22/31 28/50/31 30/53/31
f 2/3/32 12/25/32 30/53/32 20/36/32
f 37/61/33 43/75/33 44/76/33 38/63/33
f 38/63/20 44/76/20 45/77/20 39/65/20
f 39/65/34 45/77/34 46/78/34 40/67/34
f 40/67/35 46/78/35 47/79/35 41/69/35
f 41/70/7 47/80/7 48/81/7 42/73/7
f 42/73/36 48/81/36 43/75/36 37/61/36
f 43/75/37 49/82/37 50/83/37 44/76/37
f 44/76/20 50/83/20 51/84/20 45/77/20
f 45/77/38 51/84/38 52/85/38 46/78/38
f 46/78/39 52/85/39 53/86/39 47/79/39
f 47/80/7 53/87/7 54/88/7 48/81/7
f 48/81/40 54/88/40 49/82/40 43/75/40
f 49/82/41 55/89/41 56/90/41 50/83/41
f 50/83/20 56/90/20 57/91/20 51/84/20
f 51/84/42 57/91/42 58/92/42 52/85/42
f 52/85/43 58/92/43 59/93/43 53/86/43
f 53/87/7 59/94/7 60/95/7 54/88/7
f 54/88/44 60/95/44 55/89/44 49/82/44
f 55/89/45 61/96/45 62/97/45 56/90/45
f 56/90/20 62/97/20 63/98/20 57/91/20
f 57/91/46 63/98/46 64/99/46 58/92/46
f 58/92/47 64/99/47 65/100/47 59/93/47
f 59/94/7 65/101/7 66/102/7 60/95/7
f 60/95/48 66/102/48 61/96/48 55/89/48
f 61/96/49 67/103/49 68/104/49 62/97/49
f 62/97/20 68/104/20 69/105/20 63/98/20
f 63/98/50 69/105/50 70/106/50 64/99/50
f 64/99/51 70/106/51 71/107/51 65/100/51
f 65/101/7 71/108/7 72/109/7 66/102/7
f 66/102/52 72/109/52 67/103/52 61/96/52
f 67/103/42 37/62/42 38/64/42 68/104/42
f 68/104/20 38/64/20 39/66/20 69/105/20
f 69/105/41 39/66/41 40/68/41 70/106/41
f 70/106/44 40/68/44 41/71/44 71/107/44
f 71/108/7 41/72/7 42/74/7 72/109/7
f 72/109/43 42/74/43 37/62/43 67/103/43
